<svg width="60" height="60" viewBox="0 0 60 60" fill="none" xmlns="http://www.w3.org/2000/svg">
<path d="M59.4307 56.7358L43.9397 41.4923C47.9963 37.0849 50.4888 31.2561 50.4888 24.8421C50.4869 11.1213 39.1855 0 25.2434 0C11.3014 0 0 11.1213 0 24.8421C0 38.5628 11.3014 49.6841 25.2434 49.6841C31.2674 49.6841 36.7924 47.6005 41.1322 44.1366L56.6833 59.4402C57.4411 60.1866 58.6712 60.1866 59.429 59.4402C60.1885 58.6938 60.1885 57.4822 59.4307 56.7358ZM25.2434 45.862C13.4469 45.862 3.88406 36.4511 3.88406 24.8421C3.88406 13.233 13.4469 3.8221 25.2434 3.8221C37.04 3.8221 46.6028 13.233 46.6028 24.8421C46.6028 36.4511 37.04 45.862 25.2434 45.862Z" fill="white"/>
</svg>
