<svg width="178" height="60" viewBox="0 0 178 60" fill="none" xmlns="http://www.w3.org/2000/svg">
<path d="M13.8784 35.7485H15.1925C13.622 38.3284 11.2181 39.9732 8.4937 39.9732C3.78209 39.9732 0 35.039 0 28.9439C0 22.8487 3.81415 17.9146 8.4937 17.9146C9.8399 17.9146 11.1219 18.3339 12.2437 19.0433C12.2437 19.0433 12.2437 24.7837 12.2437 25.1707C12.0835 24.3322 10.6732 19.4626 7.85266 18.6886C7.6283 18.624 7.37189 18.5919 7.14752 18.5919C7.11547 18.5919 7.11547 18.5919 7.08342 18.5919C6.79496 18.5919 6.50649 18.624 6.21803 18.6886C2.56413 19.4948 2.17951 25.3642 3.23722 30.1049C4.29493 34.8777 7.14752 40.0055 10.8014 39.1992C12.404 38.8444 13.3976 37.5223 13.8784 35.7485Z" fill="#0B1632"/>
<path d="M25.4811 39.6506V38.8443C24.9042 39.5215 23.8144 39.9408 22.1477 39.9408C19.199 39.9408 16.0259 38.7153 16.0259 35.3936C16.0259 30.1692 25.4811 30.4272 25.4811 28.5568C25.4811 26.6218 24.7759 25.0738 23.1734 25.0738C21.5708 25.0738 20.8656 26.6218 20.8656 28.5568L19.0387 25.493C20.0002 24.6546 21.4747 24.2998 23.1734 24.2998C26.2823 24.2998 28.558 25.493 28.558 28.5568V32.2977C28.558 36.9739 28.9748 39.1023 29.8401 39.6183C29.4555 39.6506 25.4811 39.6506 25.4811 39.6506ZM25.4811 37.4576V29.5888C23.9106 31.04 19.1028 31.556 19.1028 35.4259C19.1028 38.1348 20.8337 39.4248 22.8529 39.4248C24.2631 39.4571 25.4811 38.6186 25.4811 37.4576Z" fill="#0B1632"/>
<path d="M47.2113 18.753C47.0832 18.6241 46.8909 18.6241 46.7626 18.753L45.0319 20.7525C44.9357 20.8815 44.9357 21.0428 45.0319 21.1718L46.7626 23.1713C46.8909 23.3002 47.0832 23.3002 47.2113 23.1713L49.0383 21.1718C49.1345 21.0428 49.1345 20.8815 49.0383 20.7525L47.2113 18.753Z" fill="#0B1632"/>
<path d="M42.6605 36.3612C42.6605 39.1024 39.6156 39.9408 36.6028 39.9408C34.1989 39.9408 32.6924 39.6507 31.763 39.1347C31.763 39.1347 31.763 34.6197 31.763 34.2328C31.9553 35.1357 33.3015 39.4249 37.1477 39.4249C38.4938 39.4249 39.5515 38.8767 39.5515 37.4899C39.5515 33.8457 31.731 30.6853 31.731 27.3314C31.731 24.8804 34.4873 24.2676 37.4041 24.2676C39.4874 24.2676 41.0259 24.5579 41.9874 25.0739C41.9874 25.0739 41.9874 29.5889 41.9874 29.9758C41.7951 29.0729 40.5452 24.7514 36.8592 24.7514C35.6733 24.7514 34.8079 25.2351 34.8079 26.1382C34.8399 29.7823 42.6605 32.8137 42.6605 36.3612Z" fill="#0B1632"/>
<path d="M45.8344 32.2977V31.9429C45.8344 27.2667 45.4176 25.1383 44.5522 24.6223C44.9369 24.6223 48.9113 24.6223 48.9113 24.6223V32.2977C48.9113 36.9739 49.328 39.1023 50.1933 39.6183C49.8087 39.6183 44.9369 39.6183 44.5522 39.6183C45.4497 39.1023 45.8344 36.9739 45.8344 32.2977Z" fill="#0B1632"/>
<path d="M62.1796 32.2977V28.5568C62.1796 26.2348 60.9937 25.0738 59.5514 25.0738C58.045 25.0738 56.6988 25.9123 56.154 26.6863V32.2977C56.154 36.9739 56.5706 39.1023 57.436 39.6183C57.0514 39.6183 52.1795 39.6183 51.7949 39.6183C52.6603 39.07 53.077 36.9739 53.077 32.2977V31.9429C53.077 27.2668 52.6603 25.1383 51.7949 24.6223C52.1795 24.6223 56.154 24.6223 56.154 24.6223V26.009C57.0514 25.1383 58.7822 24.2998 61.2181 24.2998C63.3656 24.2998 65.2567 25.5575 65.2567 28.5568V32.2977C65.2567 36.9739 65.6733 39.1023 66.5387 39.6183C66.1541 39.6183 61.2822 39.6183 60.8976 39.6183C61.763 39.1023 62.1796 36.9739 62.1796 32.2977Z" fill="#0B1632"/>
<path d="M82.2771 32.1364C82.2771 36.4579 79.104 39.9731 75.2257 39.9731C71.3474 39.9731 68.1743 36.4579 68.1743 32.1364C68.1743 27.815 71.3474 24.2998 75.2257 24.2998C79.104 24.2998 82.2771 27.815 82.2771 32.1364ZM79.2002 32.1364C79.2002 28.1053 77.4053 24.8158 75.2257 24.8158C73.0142 24.8158 71.2513 28.1053 71.2513 32.1364C71.2513 36.1676 73.0462 39.4571 75.2257 39.4571C77.4373 39.4571 79.2002 36.1676 79.2002 32.1364Z" fill="#0B1632"/>
<path d="M87.5973 20.5912C87.5973 18.9466 89.1999 18.3983 90.6422 18.3983H90.6743C90.7383 18.3983 90.7704 18.3983 90.8345 18.3983H90.8666C94.873 18.5919 96.6038 24.2678 96.7641 25.1707C96.7641 24.7837 96.7641 19.0433 96.7641 19.0433C95.6423 18.3016 93.7833 17.9146 91.2832 17.9146C88.0781 17.9146 84.4883 18.7531 84.4883 22.236C84.4883 26.9766 94.4243 31.427 94.4243 36.5548C94.4243 38.4575 92.405 39.4895 90.9306 39.4895C86.5075 39.4895 84.6485 33.6523 84.4883 32.717C84.4883 33.1041 84.4883 38.8444 84.4883 38.8444C85.6101 39.5862 87.405 39.9732 90.2896 39.9732C93.4948 39.9732 97.5333 38.78 97.5333 34.91C97.5333 29.8791 87.5973 25.6222 87.5973 20.5912Z" fill="#0B1632"/>
<path d="M123.367 32.2978V28.5569C123.367 25.4932 121.092 24.3 117.983 24.3C106.732 24.3 108.976 39.1992 105.387 39.1992C104.552 39.1992 104.008 38.2317 104.008 36.329V25.1384H107.437V24.6224H104.008C104.008 24.3 104.008 20.3656 104.008 20.2043C103.976 20.2043 103.623 20.2043 103.495 20.2043C103.495 22.0103 102.79 24.6224 99.1042 24.6224V25.1384H100.899V36.329C100.899 39.0057 102.758 39.9409 104.264 39.9732C104.297 39.9732 104.297 39.9732 104.328 39.9732C110.931 39.9732 111.252 25.1062 117.181 25.1062C119.361 25.1062 120.259 26.6542 120.259 28.5891C120.259 30.4596 110.803 30.2338 110.803 35.426C110.803 38.7477 113.976 39.9732 116.925 39.9732C118.591 39.9732 119.681 39.5217 120.259 38.8767V39.6507C120.259 39.6507 124.232 39.6507 124.617 39.6507C123.784 39.1024 123.367 36.974 123.367 32.2978ZM120.29 37.4577C120.29 38.6187 119.072 39.4572 117.662 39.4572C115.643 39.4572 113.912 38.1672 113.912 35.4583C113.912 31.5561 118.688 31.0723 120.29 29.6211V37.4577Z" fill="#0B1632"/>
<path d="M134.649 24.2998C132.469 24.2998 131.251 25.0415 130.61 25.6221V24.6223C130.61 24.6223 126.635 24.6223 126.251 24.6223C127.116 25.1706 127.533 27.2668 127.533 31.9429V32.2977C127.533 36.9739 127.116 39.1023 126.251 39.6183C126.635 39.6183 127.533 39.6183 127.533 39.6183C127.533 39.6183 131.508 39.6183 131.893 39.6183C131.027 39.07 130.61 36.9739 130.61 32.2977V26.1703C131.187 25.6543 131.957 25.0738 132.983 25.0738C134.425 25.0738 135.611 26.2348 135.611 28.5568L138.27 26.3961C137.598 24.9449 136.187 24.2998 134.649 24.2998Z" fill="#0B1632"/>
<path d="M142.918 26.2027C142.918 25.2675 143.784 24.816 144.97 24.816C148.655 24.816 149.937 29.1052 150.097 30.0404C150.097 29.6534 150.097 25.1385 150.097 25.1385C149.136 24.6225 147.598 24.3323 145.515 24.3323C142.566 24.3323 139.841 24.945 139.841 27.3959C139.841 30.7822 147.662 33.9426 147.662 37.5545C147.662 38.909 146.605 39.4895 145.258 39.4895C141.412 39.4895 140.033 35.2003 139.873 34.2973C139.873 34.6843 139.873 39.1992 139.873 39.1992C140.835 39.7152 142.309 40.0055 144.713 40.0055C147.726 40.0055 150.771 39.167 150.771 36.4258C150.706 32.8138 142.918 29.7824 142.918 26.2027Z" fill="#0B1632"/>
<path d="M144.264 43.9075L135.77 48.2611L145.033 41.8435L157.406 52.8405L153.912 35.6838L165.161 27.9118L152.886 24.7836L149.392 7.82039L142.085 21.9779L133.335 19.7527L140.354 20.6879L150.61 0.467529L154.648 22.8164L176.924 26.3638L157.085 37.1351L160.579 59.5807L144.264 43.9075Z" fill="url(#paint0_linear_18_403)"/>
<defs>
<linearGradient id="paint0_linear_18_403" x1="133.799" y1="30.0234" x2="175.896" y2="30.0234" gradientUnits="userSpaceOnUse">
<stop offset="0.2256" stop-color="#BE8F5F"/>
<stop offset="0.3975" stop-color="#C89D69"/>
<stop offset="0.7208" stop-color="#E4C284"/>
<stop offset="1" stop-color="#FFE69E"/>
</linearGradient>
</defs>
</svg>
