<svg width="32" height="32" viewBox="0 0 32 32" fill="none" xmlns="http://www.w3.org/2000/svg">
<path d="M21.332 11.6641C16.0011 11.6641 11.6641 16.0011 11.6641 21.332C11.6641 26.6629 16.0011 31 21.332 31C26.6629 31 31 26.6629 31 21.332C31 16.0011 26.6629 11.6641 21.332 11.6641ZM21.332 20.4531C22.786 20.4531 23.9688 21.6359 23.9688 23.0898C23.9688 24.2342 23.2318 25.2006 22.2109 25.5647V27.4844H20.4531V25.5647C19.4323 25.2006 18.6953 24.2342 18.6953 23.0898H20.4531C20.4531 23.5748 20.8471 23.9688 21.332 23.9688C21.817 23.9688 22.2109 23.5748 22.2109 23.0898C22.2109 22.6049 21.817 22.2109 21.332 22.2109C19.8781 22.2109 18.6953 21.0282 18.6953 19.5742C18.6953 18.4299 19.4323 17.4634 20.4531 17.0994V15.1797H22.2109V17.0994C23.2318 17.4634 23.9688 18.4299 23.9688 19.5742H22.2109C22.2109 19.0893 21.817 18.6953 21.332 18.6953C20.8471 18.6953 20.4531 19.0893 20.4531 19.5742C20.4531 20.0591 20.8471 20.4531 21.332 20.4531Z" fill="white"/>
<path d="M10.7852 11.6641C16.2062 11.6641 20.4531 9.3475 20.4531 6.39062C20.4531 3.43375 16.2062 1 10.7852 1C5.36406 1 1 3.43375 1 6.39062C1 9.3475 5.36406 11.6641 10.7852 11.6641Z" fill="white"/>
<path d="M1 20.7788V22.2109C1 25.1678 5.36406 27.4844 10.7852 27.4844C11.0927 27.4844 11.3906 27.4561 11.6934 27.4413C11.0192 26.3812 10.5164 25.205 10.2203 23.9476C6.3001 23.8394 2.89621 22.6347 1 20.7788Z" fill="white"/>
<path d="M9.9485 22.1662C9.92834 21.8897 9.90625 21.6136 9.90625 21.332C9.90625 20.4158 10.0263 19.529 10.231 18.6746C6.30596 18.5683 2.89791 17.363 1 15.5054V16.9375C1 19.7375 4.94113 21.938 9.9485 22.1662Z" fill="white"/>
<path d="M10.7852 16.9375C10.7861 16.9375 10.7869 16.9374 10.7879 16.9374C11.3675 15.552 12.2102 14.3031 13.2566 13.2568C12.4628 13.3571 11.6425 13.4219 10.7852 13.4219C6.61228 13.4219 2.98785 12.1775 1 10.232V11.6641C1 14.6209 5.36406 16.9375 10.7852 16.9375Z" fill="white"/>
</svg>
