<svg width="22" height="22" viewBox="0 0 22 22" fill="none" xmlns="http://www.w3.org/2000/svg">
<path d="M11.0002 1.8335C16.0629 1.8335 20.1668 5.93741 20.1668 11.0002C20.1668 16.0629 16.0629 20.1668 11.0002 20.1668C5.93741 20.1668 1.8335 16.0629 1.8335 11.0002C1.8335 5.93741 5.93741 1.8335 11.0002 1.8335ZM11.0002 3.66683C9.05524 3.66683 7.18998 4.43945 5.81471 5.81471C4.43945 7.18998 3.66683 9.05524 3.66683 11.0002C3.66683 12.9451 4.43945 14.8103 5.81471 16.1856C7.18998 17.5609 9.05524 18.3335 11.0002 18.3335C12.9451 18.3335 14.8103 17.5609 16.1856 16.1856C17.5609 14.8103 18.3335 12.9451 18.3335 11.0002C18.3335 9.05524 17.5609 7.18998 16.1856 5.81471C14.8103 4.43945 12.9451 3.66683 11.0002 3.66683ZM11.0002 5.50016C11.2247 5.50019 11.4414 5.58262 11.6092 5.73182C11.777 5.88101 11.8841 6.0866 11.9104 6.30958L11.9168 6.41683V10.6207L14.3982 13.1021C14.5626 13.267 14.6581 13.4884 14.6652 13.7212C14.6723 13.954 14.5905 14.1807 14.4365 14.3554C14.2825 14.5301 14.0677 14.6396 13.8359 14.6617C13.604 14.6838 13.3725 14.6168 13.1882 14.4743L13.1021 14.3982L10.3521 11.6482C10.2096 11.5057 10.1181 11.3201 10.0917 11.1202L10.0835 11.0002V6.41683C10.0835 6.17371 10.1801 5.94056 10.352 5.76865C10.5239 5.59674 10.757 5.50016 11.0002 5.50016Z" fill="#ffffff"/>
</svg>
