<svg width="32" height="32" viewBox="0 0 32 32" fill="none" xmlns="http://www.w3.org/2000/svg">
<path d="M1.85374 25.1953H6.12207V27.7563C6.12207 28.2278 6.50429 28.61 6.97574 28.61H29.2849C29.7563 28.61 30.1386 28.2278 30.1386 27.7563V5.561C30.1386 5.08955 29.7563 4.70733 29.2849 4.70733H25.0166V3.85367C25.0166 3.38221 24.6343 3 24.1629 3C23.6914 3 23.3092 3.38221 23.3092 3.85367V4.70733H18.984V3.85367C18.984 3.38221 18.6018 3 18.1303 3C17.6589 3 17.2766 3.38221 17.2766 3.85367V4.70733H13.0083V3.85367C13.0083 3.38221 12.6261 3 12.1546 3C11.6832 3 11.301 3.38221 11.301 3.85367V4.70733H6.97574C6.50429 4.70733 6.12207 5.08955 6.12207 5.561V10.683C6.12207 16.9745 3.50729 21.8146 1.30722 23.6859C1.03109 23.916 0.928705 24.2943 1.05101 24.6323C1.17342 24.9703 1.49429 25.1953 1.85374 25.1953ZM28.4312 26.9027H7.8294V25.1953H24.1629C24.3626 25.1953 24.556 25.1253 24.7094 24.9975C25.7356 24.1427 27.3252 22.1077 28.4312 19.5013V26.9027ZM7.8294 6.41467H11.301V7.26833C11.301 7.73979 11.6832 8.122 12.1546 8.122C12.6261 8.122 13.0083 7.73979 13.0083 7.26833V6.41467H17.2766V7.26833C17.2766 7.73979 17.6589 8.122 18.1303 8.122C18.6018 8.122 18.984 7.73979 18.984 7.26833V6.41467H23.3092V7.26833C23.3092 7.73979 23.6914 8.122 24.1629 8.122C24.6343 8.122 25.0166 7.73979 25.0166 7.26833V6.41467H28.4312V9.82933H7.8294V6.41467ZM7.81478 11.5361H28.4161C28.2237 16.9515 26.1453 21.2123 23.8281 23.488H3.79549C6.42097 20.1427 7.67392 15.7869 7.81478 11.5361Z" fill="#FFE69E"/>
</svg>
