<svg width="26" height="26" viewBox="0 0 26 26" fill="none" xmlns="http://www.w3.org/2000/svg">
<g clip-path="url(#clip0_407_85384)">
<path d="M6.76953 19.0003L6.76767 19.0003C6.28104 19.0021 5.81179 18.8195 5.45439 18.4892C5.09812 18.16 4.87937 17.7084 4.84181 17.2249L4.83203 17.0489V4.60449C4.83203 3.5373 5.70234 2.66699 6.76953 2.66699H23.5612C24.6284 2.66699 25.4987 3.5373 25.4987 4.60449V17.0628C25.4987 18.13 24.6284 19.0003 23.5612 19.0003L6.76953 19.0003Z" stroke="white"/>
<path d="M15.3008 2.16699H6.76953C5.4262 2.16699 4.33203 3.26116 4.33203 4.60449V17.0628L4.34286 17.2578C4.38888 17.8692 4.66479 18.4404 5.11504 18.8565C5.5653 19.2725 6.15647 19.5026 6.76953 19.5003H15.3008V2.16699Z" fill="#CDD0D2"/>
<path d="M26.0004 14.0184V17.0626C26.0004 18.4059 24.9062 19.5001 23.5629 19.5001H6.7712C6.66286 19.5001 6.55453 19.4892 6.45703 19.4784L17.6154 8.32008C18.352 7.58341 19.5654 7.58341 20.302 8.32008L26.0004 14.0184Z" fill="#388E3C"/>
<path d="M18.8666 7.77002C18.3956 7.79149 17.9495 7.9877 17.6154 8.32035L6.45703 19.4787C6.55453 19.4895 6.66286 19.5004 6.7712 19.5004H18.8666V7.77002Z" fill="#317C34"/>
<path d="M19.5646 19.5003H6.77042C6.15735 19.5026 5.56618 19.2726 5.11593 18.8565C4.66568 18.4404 4.38977 17.8692 4.34375 17.2578L9.48958 12.112C10.2263 11.3753 11.4396 11.3753 12.1762 12.112L19.5646 19.5003Z" fill="#4CAF50"/>
<path d="M10.8329 11.5595C10.3454 11.5595 9.85792 11.7437 9.48958 12.112L4.34375 17.2578C4.38977 17.8692 4.66568 18.4404 5.11593 18.8565C5.56618 19.2726 6.15735 19.5026 6.77042 19.5003H10.8893V11.5606L10.8329 11.5595Z" fill="#429846"/>
<path d="M9.7487 5.41699C8.55378 5.41699 7.58203 6.38874 7.58203 7.58366C7.58203 8.77858 8.55378 9.75033 9.7487 9.75033C10.9436 9.75033 11.9154 8.77858 11.9154 7.58366C11.9154 6.38874 10.9436 5.41699 9.7487 5.41699Z" fill="#FFC107"/>
<path d="M9.7487 5.41699C8.55378 5.41699 7.58203 6.38874 7.58203 7.58366C7.58203 8.77858 8.55378 9.75033 9.7487 9.75033L9.81587 9.74924V5.41808L9.7487 5.41699Z" fill="#DEA806"/>
<path d="M6.77045 21.1253C5.9222 21.1238 5.09578 20.8563 4.40746 20.3606C3.71914 19.8648 3.20357 19.1658 2.93328 18.3617L2.89536 18.2372C2.77402 17.8574 2.71083 17.4615 2.70795 17.0628V9.67773L0.0797806 18.4495C-0.0810712 19.0737 0.00950956 19.7362 0.332039 20.2943C0.654569 20.8525 1.18328 21.2617 1.80445 21.4341L18.556 25.9202C18.7651 25.9743 18.9742 26.0003 19.18 26.0003C20.259 26.0003 21.2449 25.2842 21.5211 24.2291L22.4961 21.1253H6.77045Z" fill="#ECEFF1"/>
<path d="M2.70795 9.67773L0.0797806 18.4495C-0.0810712 19.0737 0.00950956 19.7362 0.332039 20.2943C0.654569 20.8525 1.18328 21.2617 1.80445 21.4341L10.0215 23.6343L10.8514 21.1253H6.77045C5.9222 21.1238 5.09578 20.8563 4.40746 20.3606C3.71914 19.8648 3.20357 19.1658 2.93328 18.3617L2.89536 18.2372C2.77402 17.8574 2.71083 17.4615 2.70795 17.0628V9.67773Z" fill="#CDD0D2"/>
</g>
<defs>
<clipPath id="clip0_407_85384">
<rect width="26" height="26" fill="white"/>
</clipPath>
</defs>
</svg>
