<svg width="32" height="32" viewBox="0 0 32 32" fill="none" xmlns="http://www.w3.org/2000/svg">
<path d="M15.7984 17.217L21.3981 21.4168C21.8106 21.7261 22.3953 21.6426 22.7047 21.2301C23.014 20.8176 22.9305 20.2329 22.518 19.9235L17.3337 15.9991V8.06628C17.3337 7.55064 16.916 7.133 16.4004 7.133C15.8848 7.133 15.4671 7.55064 15.4671 8.06628V16.4657C15.4671 16.7756 15.5968 17.0546 15.7984 17.217Z" fill="white"/>
<path d="M16.867 2C10.0359 2 4.2025 6.93048 3.06391 13.6659L2.70927 13.1386C2.42042 12.7107 1.83992 12.5978 1.41202 12.8866C0.984111 13.1755 0.871185 13.756 1.16003 14.1839L3.02658 16.9837C3.1801 17.217 3.43022 17.3696 3.70787 17.399H3.8012C4.04851 17.3981 4.2851 17.2992 4.45915 17.1237L6.79234 14.7905C7.15678 14.4261 7.15678 13.8344 6.79234 13.4699C6.4279 13.1055 5.8362 13.1055 5.47176 13.4699L4.89313 14.0532C5.96779 7.43912 12.2007 2.94914 18.8143 4.0238C25.4279 5.09847 29.9189 11.3309 28.8442 17.945C27.8899 23.8181 22.8171 28.1326 16.867 28.1317C13.1143 28.1998 9.56509 26.4294 7.36164 23.3906C7.06252 22.9707 6.47969 22.8722 6.05972 23.1713C5.63975 23.4704 5.54129 24.0533 5.8404 24.4732C8.39197 28.0066 12.5096 30.0696 16.867 29.9982C24.5987 29.9982 30.8661 23.7308 30.8661 15.9991C30.8661 8.2674 24.5987 2 16.867 2Z" fill="white"/>
</svg>
