<svg width="32" height="32" viewBox="0 0 32 32" fill="none" xmlns="http://www.w3.org/2000/svg">
<path d="M30.1914 14.0486C30.1905 14.0479 30.1898 14.047 30.1891 14.0463L17.9515 1.8091C17.4299 1.28725 16.7363 1 15.9987 1C15.261 1 14.5675 1.28725 14.0456 1.8091L1.81439 14.0401C1.81027 14.0442 1.80592 14.0486 1.80203 14.0527C0.730866 15.13 0.732697 16.878 1.8073 17.9526C2.29825 18.4438 2.94644 18.728 3.63973 18.758C3.66811 18.7608 3.69649 18.7621 3.7251 18.7621H4.21262V27.7677C4.21262 29.55 5.66281 31 7.44511 31H12.2329C12.7183 31 13.1118 30.6063 13.1118 30.1211V23.0605C13.1118 22.2473 13.7735 21.5859 14.5867 21.5859H17.4106C18.2238 21.5859 18.8853 22.2473 18.8853 23.0605V30.1211C18.8853 30.6063 19.2788 31 19.7642 31H24.552C26.3345 31 27.7845 29.55 27.7845 27.7677V18.7621H28.2367C28.9742 18.7621 29.6677 18.4749 30.1898 17.9528C31.2655 16.8766 31.266 15.1254 30.1914 14.0486ZM28.9467 16.71C28.757 16.8997 28.5048 17.0043 28.2367 17.0043H26.9056C26.4201 17.0043 26.0267 17.3978 26.0267 17.8832V27.7677C26.0267 28.5807 25.3652 29.2422 24.552 29.2422H20.6431V23.0605C20.6431 21.2782 19.1932 19.828 17.4106 19.828H14.5867C12.8042 19.828 11.354 21.2782 11.354 23.0605V29.2422H7.44511C6.63213 29.2422 5.97043 28.5807 5.97043 27.7677V17.8832C5.97043 17.3978 5.57698 17.0043 5.09152 17.0043H3.78323C3.7695 17.0034 3.756 17.0027 3.74204 17.0025C3.48019 16.9979 3.2346 16.894 3.05058 16.7098C2.6592 16.3184 2.6592 15.6814 3.05058 15.2898C3.05081 15.2898 3.05081 15.2896 3.05104 15.2893L15.2889 3.05193C15.4784 2.86218 15.7304 2.75781 15.9987 2.75781C16.2667 2.75781 16.5187 2.86218 16.7084 3.05193L28.9428 15.2861C28.9447 15.2879 28.9467 15.2898 28.9486 15.2916C29.3379 15.6837 29.3372 16.3193 28.9467 16.71Z" fill="white"/>
</svg>
