<svg width="32" height="32" viewBox="0 0 32 32" fill="none" xmlns="http://www.w3.org/2000/svg">
<path d="M8.28304 16.9365L18.9633 27.6166C19.2104 27.8638 19.5401 28 19.8917 28C20.2433 28 20.5731 27.8638 20.8201 27.6166L21.6066 26.8303C22.1184 26.3179 22.1184 25.4851 21.6066 24.9735L12.6381 16.005L21.6166 7.02651C21.8636 6.77929 22 6.44974 22 6.09832C22 5.74652 21.8636 5.41696 21.6166 5.16955L20.8301 4.38341C20.5828 4.13619 20.2533 4 19.9017 4C19.5501 4 19.2203 4.13619 18.9733 4.38341L8.28304 15.0733C8.03543 15.3213 7.89943 15.6524 7.90021 16.0044C7.89943 16.3578 8.03543 16.6887 8.28304 16.9365Z" fill="#313131"/>
</svg>
