<svg width="40" height="40" viewBox="0 0 40 40" fill="none" xmlns="http://www.w3.org/2000/svg">
<path d="M34.1421 5.85784C30.3646 2.08033 25.3422 0 20 0C14.6578 0 9.63535 2.08033 5.85793 5.85784C2.08033 9.63535 0 14.6578 0 20C0 25.3422 2.08033 30.3646 5.85793 34.1422C9.63535 37.9197 14.6578 40 20 40C25.3422 40 30.3646 37.9197 34.1421 34.1422C37.9197 30.3646 40 25.3422 40 20C40 14.6578 37.9197 9.63535 34.1421 5.85784ZM20 37.3444C10.4363 37.3444 2.6556 29.5637 2.6556 20C2.6556 10.4363 10.4363 2.6556 20 2.6556C29.5637 2.6556 37.3444 10.4363 37.3444 20C37.3444 29.5637 29.5637 37.3444 20 37.3444ZM26.5315 15.3462L21.8778 20L26.5315 24.6538C27.05 25.1723 27.05 26.013 26.5315 26.5315C26.2723 26.7909 25.9324 26.9205 25.5927 26.9205C25.2529 26.9205 24.9131 26.7909 24.6539 26.5315L20 21.8778L15.3462 26.5315C14.8277 27.0501 13.987 27.0501 13.4685 26.5315C12.95 26.013 12.95 25.1723 13.4685 24.6538L18.1222 20L13.4685 15.3462C12.95 14.8277 12.95 13.987 13.4685 13.4685C13.987 12.9499 14.8277 12.9499 15.3462 13.4685L20 18.1222L24.6538 13.4685C25.1723 12.9499 26.013 12.9499 26.5315 13.4685C27.05 13.987 27.05 14.8277 26.5315 15.3462Z" fill="white"/>
</svg>
