<svg width="32" height="32" viewBox="0 0 32 32" fill="none" xmlns="http://www.w3.org/2000/svg">
<path d="M26.7693 1C26.1745 1 25.6924 1.48216 25.6924 2.07695V6.01093C20.1479 0.6431 11.3018 0.786339 5.93401 6.33072C3.40428 8.94368 1.99302 12.4401 2.00003 16.077C2.00003 16.6717 2.48218 17.1539 3.07697 17.1539C3.67177 17.1539 4.15386 16.6717 4.15386 16.077C4.15518 9.5345 9.45991 4.23179 16.0024 4.23311C19.3251 4.23375 22.4948 5.62986 24.7383 8.08077L19.9675 9.67136C19.4025 9.85934 19.0968 10.4697 19.2848 11.0347C19.4727 11.5997 20.0831 11.9055 20.6481 11.7175L27.1097 9.56365C27.5508 9.41675 27.8478 9.00331 27.8463 8.53844V2.07688C27.8463 1.48216 27.3641 1 26.7693 1Z" fill="white"/>
<path d="M28.9232 15.0001C28.3284 15.0001 27.8462 15.4822 27.8462 16.077C27.8449 22.6195 22.5402 27.9222 15.9976 27.9209C12.6749 27.9202 9.50528 26.5241 7.26178 24.0732L12.0325 22.4826C12.5976 22.2946 12.9033 21.6842 12.7153 21.1192C12.5273 20.5542 11.9169 20.2485 11.3519 20.4365L4.89038 22.5903C4.4493 22.7372 4.15228 23.1507 4.15373 23.6155V30.0771C4.15373 30.6719 4.63589 31.154 5.23068 31.154C5.82547 31.154 6.30763 30.6719 6.30763 30.0771V26.143C11.8521 31.5109 20.6982 31.3677 26.066 25.8232C28.5957 23.2103 30.007 19.7139 30 16.077C30.0001 15.4822 29.5179 15.0001 28.9232 15.0001Z" fill="white"/>
</svg>
