<svg width="32" height="32" viewBox="0 0 32 32" fill="none" xmlns="http://www.w3.org/2000/svg">
<path d="M23.717 15.0635L13.0367 4.38341C12.7896 4.13619 12.4599 4 12.1083 4C11.7567 4 11.4269 4.13619 11.1799 4.38341L10.3934 5.16975C9.88156 5.68213 9.88156 6.51491 10.3934 7.02651L19.3619 15.995L10.3834 24.9735C10.1364 25.2207 10 25.5503 10 25.9017C10 26.2535 10.1364 26.583 10.3834 26.8304L11.1699 27.6166C11.4172 27.8638 11.7467 28 12.0983 28C12.4499 28 12.7797 27.8638 13.0267 27.6166L23.717 16.9267C23.9646 16.6787 24.1006 16.3476 24.0998 15.9956C24.1006 15.6422 23.9646 15.3113 23.717 15.0635Z" fill="#313131"/>
</svg>
