<svg width="32" height="32" viewBox="0 0 32 32" fill="none" xmlns="http://www.w3.org/2000/svg">
<path d="M16 30C23.7187 30 30 23.7187 30 16C30 8.28135 23.7187 2 16 2C8.28127 2 2 8.28135 2 16C2 23.7187 8.28135 30 16 30ZM16 3.86664C22.692 3.86664 28.1334 9.30795 28.1334 16C28.1334 22.6921 22.6921 28.1334 16 28.1334C9.30795 28.1334 3.86664 22.6921 3.86664 16C3.86664 9.30795 9.30803 3.86664 16 3.86664Z" fill="#FFE69E"/>
<path d="M20.0833 20.4614C20.256 20.6014 20.4613 20.6667 20.6667 20.6667C20.942 20.6667 21.2127 20.5454 21.3946 20.3168C21.7167 19.9154 21.6513 19.3274 21.25 19.0054L16.9333 15.552V8.53338C16.9333 8.02004 16.5133 7.60006 16 7.60006C15.4867 7.60006 15.0667 8.02004 15.0667 8.53338V16.0001C15.0667 16.2848 15.1974 16.5507 15.4167 16.728L20.0833 20.4614Z" fill="#FFE69E"/>
</svg>
