<svg width="27" height="26" viewBox="0 0 27 26" fill="none" xmlns="http://www.w3.org/2000/svg">
<g clip-path="url(#clip0_407_85398)">
<path d="M23.6739 6.52173H23.1085V18.3914C23.1085 19.9496 21.8409 21.2175 20.2824 21.2175H5.02148V21.7827C5.02148 22.7178 5.78233 23.4783 6.71731 23.4783H23.6739C24.6089 23.4783 25.3696 22.7176 25.3696 21.7827V8.21739C25.3694 7.28242 24.6089 6.52173 23.6739 6.52173Z" fill="#4CAF50"/>
<path d="M23.6741 5.39132H23.1087V4.8261C23.1087 3.26783 21.841 2 20.2826 2H3.32595C1.76766 2 0.5 3.26783 0.5 4.8261V18.3914C0.5 19.9497 1.76766 21.2175 3.32595 21.2175H3.89134V21.7827C3.89134 23.341 5.15899 24.6088 6.71744 24.6088H23.6741C25.2323 24.6088 26.5 23.341 26.5 21.7827V8.21742C26.5 6.65915 25.2322 5.39132 23.6741 5.39132ZM25.3695 21.7827C25.3695 22.7178 24.6088 23.4784 23.6739 23.4784H6.71725C5.78226 23.4784 5.02142 22.7177 5.02142 21.7827V21.2175H20.2824C21.8408 21.2175 23.1085 19.9497 23.1085 18.3914V6.52177H23.6739C24.6088 6.52177 25.3695 7.28246 25.3695 8.21743V21.7827ZM1.63028 18.3914V4.8261C1.63028 3.89114 2.39097 3.13044 3.32595 3.13044H20.2826C21.2175 3.13044 21.9784 3.89114 21.9784 4.8261V18.3914C21.9784 19.3264 21.2175 20.087 20.2826 20.087H3.32595C2.39097 20.087 1.63028 19.3264 1.63028 18.3914Z" fill="#ECEFF1"/>
<path d="M20.2831 20.087C21.2181 20.087 21.979 19.3263 21.979 18.3913V4.82603C21.979 3.89106 21.2181 3.13037 20.2831 3.13037H3.32653C2.39154 3.13037 1.63086 3.89106 1.63086 4.82603V18.3913C1.63086 19.3263 2.39154 20.087 3.32653 20.087H20.2831ZM7.28307 8.30638C7.28307 7.69955 7.59504 7.15333 8.11785 6.84544C8.64084 6.53739 9.26994 6.52922 9.80064 6.8233L15.7587 10.1256C16.3057 10.4288 16.6323 10.9833 16.6321 11.6087C16.6321 12.234 16.3055 12.7886 15.7587 13.0916L9.80064 16.3939C9.54206 16.5372 9.2599 16.6088 8.97824 16.6088C8.68182 16.6088 8.38617 16.5297 8.118 16.3718C7.59516 16.0639 7.28321 15.5176 7.28321 14.9108V8.30637L7.28307 8.30638Z" fill="#388E3C"/>
<path d="M8.69243 15.398C8.77595 15.4473 8.99828 15.5468 9.25325 15.4054L15.2113 12.1031C15.474 11.9575 15.5024 11.7088 15.5024 11.6088C15.5024 11.5086 15.474 11.2601 15.2113 11.1144L9.25325 7.81211C9.15608 7.7581 9.06344 7.73926 8.98164 7.73926C8.84897 7.73926 8.74409 7.78887 8.69243 7.81949C8.60875 7.86878 8.41406 8.01495 8.41406 8.30652V14.911C8.41391 15.2027 8.60875 15.3487 8.69243 15.398Z" fill="#FFC107"/>
<path d="M8.11618 16.372C8.38435 16.5299 8.68015 16.609 8.97642 16.609C9.25808 16.609 9.54023 16.5375 9.79882 16.3941L15.7569 13.0918C16.3037 12.7886 16.6303 12.2342 16.6303 11.6089C16.6304 10.9835 16.3039 10.429 15.7569 10.1258L9.79882 6.82351C9.26816 6.52944 8.63903 6.5376 8.11604 6.84565C7.5932 7.15353 7.28125 7.69976 7.28125 8.30658V14.911C7.28121 15.5177 7.59335 16.0639 8.11618 16.372ZM8.41149 8.30643C8.41149 8.01487 8.60618 7.8687 8.68986 7.8194C8.74153 7.78894 8.8464 7.73917 8.97906 7.73917C9.06086 7.73917 9.15351 7.75801 9.25068 7.81202L15.2087 11.1143C15.4716 11.26 15.4998 11.5086 15.4998 11.6087C15.4998 11.7087 15.4713 11.9574 15.2087 12.103L9.25068 15.4053C8.9957 15.5467 8.77338 15.4474 8.68986 15.3979C8.60618 15.3486 8.41149 15.2024 8.41149 14.9109V8.30643Z" fill="#ECEFF1"/>
</g>
<defs>
<clipPath id="clip0_407_85398">
<rect width="26" height="26" fill="white" transform="translate(0.5)"/>
</clipPath>
</defs>
</svg>
