<svg width="72" height="60" viewBox="0 0 72 60" fill="none" xmlns="http://www.w3.org/2000/svg">
<path d="M64.1925 0H6.97234C3.12778 0 0 3.12778 0 6.97234V24.4176C0 44.0268 15.8328 59.9286 35.4508 59.9997C35.4944 59.9999 35.5364 60 35.5802 60C55.2553 60 71.1648 43.6814 71.1648 24.1523V6.97234C71.1648 3.12778 68.037 0 64.1925 0ZM13.9448 2.77988H55.8245V13.9504C55.8245 15.4927 54.5698 16.7474 53.0277 16.7474H16.7417C15.1994 16.7474 13.9448 15.4927 13.9448 13.9504V2.77988ZM68.3849 24.1523C68.3849 42.3098 53.5743 57.221 35.5799 57.2201C35.5407 57.2201 35.5 57.22 35.4609 57.2198C17.4405 57.1547 2.77988 42.4395 2.77988 24.4176V6.97234C2.77988 4.6606 4.6606 2.77988 6.97234 2.77988H11.165V13.9504C11.165 17.0255 13.6667 19.5272 16.7417 19.5272H53.0275C56.1026 19.5272 58.6042 17.0255 58.6042 13.9504V2.77988H64.1923C66.5041 2.77988 68.3848 4.6606 68.3848 6.97234V24.1523H68.3849Z" fill="white"/>
<path d="M64.1925 23.0277H54.2138C53.4462 23.0277 52.8239 23.6501 52.8239 24.4176C52.8239 33.9467 45.1131 41.6591 35.5824 41.6591C26.0755 41.6591 18.3409 33.9246 18.3409 24.4176C18.3409 23.6501 17.7186 23.0277 16.951 23.0277H6.97234C6.20468 23.0277 5.58241 23.6501 5.58241 24.4176C5.58241 40.9599 19.0463 54.4176 35.5824 54.4176C52.1378 54.4176 65.5824 40.9786 65.5824 24.4176C65.5824 23.6499 64.9601 23.0277 64.1925 23.0277ZM22.4489 39.5168C25.6395 42.2957 29.716 44.0815 34.1925 44.3897V51.6023C27.7327 51.2756 21.8602 48.6863 17.3524 44.6131L22.4489 39.5168ZM36.9723 44.3907C41.3365 44.0934 45.4269 42.3992 48.7229 39.5236L53.8131 44.6138C49.1414 48.8426 43.2497 51.2875 36.9723 51.6024V44.3907ZM15.6101 25.8075C15.9185 30.284 17.7042 34.3604 20.4832 37.5511L15.387 42.6473C11.314 38.1393 8.72394 32.2671 8.39731 25.8075H15.6101ZM55.7782 42.6477L50.6885 37.5581C53.564 34.2621 55.2584 30.1717 55.5555 25.8075H62.7676C62.4528 32.0848 60.0069 37.976 55.7782 42.6477Z" fill="white"/>
<path d="M23.7197 30.692H47.4451C48.2128 30.692 48.835 30.0698 48.835 29.3021V23.7197C48.835 22.952 48.2128 22.3298 47.4451 22.3298H23.7197C22.952 22.3298 22.3298 22.952 22.3298 23.7197V29.3021C22.3298 30.0698 22.952 30.692 23.7197 30.692ZM25.1096 25.1096H46.0552V27.9122H25.1096V25.1096Z" fill="white"/>
<path d="M20.9284 13.9448C22.0002 13.9448 22.9789 13.539 23.7197 12.8735C25.3076 14.3002 27.7098 14.3043 29.3022 12.8735C30.8903 14.3002 33.2922 14.3043 34.8847 12.8735C36.4738 14.3013 38.8759 14.3032 40.4671 12.8735C42.0562 14.3013 44.4584 14.3032 46.0496 12.8735C46.7903 13.539 47.769 13.9448 48.8409 13.9448C51.1464 13.9448 53.022 12.0691 53.022 9.76362C53.022 7.45813 51.1462 5.58241 48.8409 5.58241C47.7691 5.58241 46.7904 5.98827 46.0496 6.65377C44.4615 5.22686 42.0594 5.22325 40.4671 6.65377C38.8779 5.22603 36.4759 5.22408 34.8847 6.65377C33.2967 5.227 30.8947 5.22297 29.3022 6.65377C27.7142 5.227 25.3123 5.22297 23.7197 6.65377C22.979 5.98827 22.0004 5.58241 20.9284 5.58241C18.6229 5.58241 16.7472 7.45813 16.7472 9.76362C16.7472 12.0691 18.6229 13.9448 20.9284 13.9448ZM48.8407 8.36228C49.6134 8.36228 50.2419 8.99081 50.2419 9.76362C50.2419 10.5364 49.6134 11.165 48.8407 11.165C48.0681 11.165 47.4394 10.5364 47.4394 9.76362C47.4394 8.99095 48.0681 8.36228 48.8407 8.36228ZM43.2583 8.36228C44.031 8.36228 44.6597 8.99081 44.6597 9.76362C44.6597 10.5364 44.0311 11.165 43.2583 11.165C42.4857 11.165 41.857 10.5364 41.857 9.76362C41.857 8.99095 42.4855 8.36228 43.2583 8.36228ZM37.6758 8.36228C38.4485 8.36228 39.0771 8.99081 39.0771 9.76362C39.0771 10.5364 38.4486 11.165 37.6758 11.165C36.9031 11.165 36.2745 10.5364 36.2745 9.76362C36.2745 8.99095 36.9031 8.36228 37.6758 8.36228ZM32.0934 8.36228C32.866 8.36228 33.4947 8.99081 33.4947 9.76362C33.4947 10.5364 32.8662 11.165 32.0934 11.165C31.3207 11.165 30.6922 10.5364 30.6922 9.76362C30.692 8.99095 31.3207 8.36228 32.0934 8.36228ZM26.511 8.36228C27.2836 8.36228 27.9122 8.99081 27.9122 9.76362C27.9122 10.5364 27.2836 11.165 26.511 11.165C25.7383 11.165 25.1096 10.5364 25.1096 9.76362C25.1096 8.99095 25.7383 8.36228 26.511 8.36228ZM20.9284 8.36228C21.7011 8.36228 22.3298 8.99081 22.3298 9.76362C22.3298 10.5364 21.7012 11.165 20.9284 11.165C20.1558 11.165 19.5271 10.5364 19.5271 9.76362C19.5272 8.99095 20.1558 8.36228 20.9284 8.36228Z" fill="white"/>
</svg>
