<svg xmlns="http://www.w3.org/2000/svg" version="1.1" xmlns:xlink="http://www.w3.org/1999/xlink" width="512" height="512" x="0" y="0" viewBox="0 0 511.931 511.931" style="enable-background:new 0 0 512 512" xml:space="preserve" class="hovered-paths"><g><path d="M401.776 0H110.155C70.652 0 38.514 32.138 38.514 71.641v314.383c0 39.503 32.138 71.641 71.641 71.641h96.507l49.304 54.266 49.305-54.266h96.506c39.503 0 71.642-32.138 71.642-71.641V71.641C473.418 32.138 441.279 0 401.776 0zm41.642 386.024c0 22.961-18.681 41.641-41.642 41.641H291.995l-36.029 39.654-36.028-39.654H110.155c-22.961 0-41.641-18.68-41.641-41.641V71.641C68.514 48.68 87.194 30 110.155 30h291.621c22.961 0 41.642 18.68 41.642 41.641z" fill="#ffffff" opacity="1" data-original="#000000" class="hovered-path"></path><path d="m321.523 133.789 52.1 82.916h28.291V74.466h-30v83.132l-52.1-82.916-28.291-.006v143.783h30zM231.929 74.466h30v143.993h-30zM163.913 218.324c25.19 0 45.684-20.494 45.684-45.684 0-14.106-6.429-26.736-16.508-35.123a40.973 40.973 0 0 0 6.272-21.821c0-22.734-18.496-41.23-41.23-41.23h-48.112v144.06c-.002 0 45.618-.202 53.894-.202zm0-30c-4.397 0-14.9.037-23.895.073V156.98c2.011-.008 23.895-.023 23.895-.023 8.648 0 15.684 7.036 15.684 15.683-.001 8.648-7.036 15.684-15.684 15.684zm-23.896-83.858h18.112c6.192 0 11.23 5.038 11.23 11.23s-5.038 11.229-11.23 11.229c-2.484 0-18.112.031-18.112.031zM171.299 326.11h37.24c-3.754 14.425-13.521 26.996-32.34 26.996-23.157 0-41.997-18.839-41.997-41.996s18.84-41.997 41.997-41.997c8.418 0 16.533 2.477 23.47 7.163l16.795-24.858c-11.916-8.05-25.839-12.305-40.265-12.305-39.699 0-71.997 32.297-71.997 71.997 0 39.699 32.298 71.996 71.997 71.996 37.802 0 64.202-29.606 64.202-71.996v-15h-69.103v30zM335.732 239.114c-39.699 0-71.997 32.297-71.997 71.997 0 39.699 32.298 71.996 71.997 71.996s71.996-32.297 71.996-71.996c0-39.7-32.297-71.997-71.996-71.997zm0 113.993c-23.157 0-41.997-18.839-41.997-41.996s18.84-41.997 41.997-41.997c23.156 0 41.996 18.839 41.996 41.997 0 23.157-18.84 41.996-41.996 41.996z" fill="#ffffff" opacity="1" data-original="#000000" class="hovered-path"></path></g></svg>