<svg width="54" height="60" viewBox="0 0 54 60" fill="none" xmlns="http://www.w3.org/2000/svg">
<path d="M52.5361 21.9762C52.0506 21.9762 51.6572 22.3696 51.6572 22.8551V56.754C51.6572 57.5747 50.9896 58.2423 50.1689 58.2423H20.5744C19.7531 58.2423 19.0849 57.5747 19.0849 56.754V51.4771H33.0033C34.7938 51.4771 36.2506 50.0209 36.2506 48.2311V41.2378L42.7658 34.7226C44.806 32.6824 44.806 29.3627 42.7657 27.3223C40.9994 25.5561 38.2745 25.3203 36.2506 26.6124V22.8551C36.2506 22.3696 35.8572 21.9762 35.3716 21.9762C34.8861 21.9762 34.4927 22.3696 34.4927 22.8551V48.231C34.4927 49.0515 33.8245 49.7191 33.0033 49.7191H3.4087C2.58803 49.7191 1.92041 49.0515 1.92041 48.231V22.8551C1.92041 22.3696 1.52701 21.9762 1.04151 21.9762C0.555997 21.9762 0.162598 22.3696 0.162598 22.8551V48.231C0.162598 50.0208 1.61877 51.4769 3.4087 51.4769H17.3271V56.7539C17.3271 58.5438 18.7838 60 20.5744 60H50.1689C51.9589 60 53.415 58.5438 53.415 56.7539V22.8551C53.415 22.3697 53.0216 21.9762 52.5361 21.9762ZM36.6086 28.5653C37.9635 27.2104 40.1679 27.2104 41.5228 28.5652C42.8778 29.9201 42.8778 32.1248 41.5228 33.4796L36.2506 38.7516V28.9233L36.6086 28.5653Z" fill="white"/>
<path d="M50.1689 8.52306H36.2506V3.2461C36.2506 1.45617 34.7938 0 33.0033 0H3.4087C1.61877 0 0.162598 1.45617 0.162598 3.2461V18.7536C0.162598 19.2391 0.555997 19.6325 1.04151 19.6325C1.52701 19.6325 1.92041 19.2391 1.92041 18.7536V3.2461C1.92041 2.42543 2.58803 1.75782 3.4087 1.75782H33.0033C33.8245 1.75782 34.4927 2.42543 34.4927 3.2461V18.7536C34.4927 19.2391 34.8861 19.6325 35.3716 19.6325C35.8572 19.6325 36.2506 19.2391 36.2506 18.7536V10.2809H50.1689C50.9896 10.2809 51.6572 10.9485 51.6572 11.769V18.7536C51.6572 19.2391 52.0506 19.6325 52.5361 19.6325C53.0216 19.6325 53.415 19.2391 53.415 18.7536V11.7692C53.415 9.97924 51.9588 8.52306 50.1689 8.52306Z" fill="white"/>
<path d="M42.7555 47.3138C42.3014 47.4852 42.0722 47.9922 42.2437 48.4465L44.9216 55.5424C44.9246 55.5504 44.9278 55.5585 44.931 55.5664C45.0925 55.9588 45.4705 56.212 45.8948 56.212H45.896C46.3207 56.2116 46.6989 55.9571 46.8594 55.5641C46.862 55.5576 46.8646 55.5512 46.8671 55.5445L49.5695 48.4489C49.7424 47.9954 49.5146 47.4876 49.0609 47.3148C48.6078 47.1419 48.0996 47.3695 47.9268 47.8234L47.4694 49.0244H44.3407L43.8884 47.8257C43.7168 47.3716 43.2098 47.1425 42.7555 47.3138ZM46.7998 50.7822L45.8978 53.1506L45.004 50.7822H46.7998Z" fill="white"/>
<path d="M4.8296 3.78809C4.34409 3.78809 3.95069 4.18149 3.95069 4.667V11.864C3.95069 12.3495 4.34409 12.7429 4.8296 12.7429C5.31511 12.7429 5.70851 12.3495 5.70851 11.864V9.9517L8.34629 12.4965C8.51679 12.6611 8.73676 12.743 8.95637 12.743C9.18664 12.743 9.41656 12.653 9.58894 12.4743C9.92598 12.1251 9.91602 11.5685 9.56668 11.2316L6.34167 8.12029L9.29574 5.40493C9.65316 5.07646 9.6766 4.5204 9.34801 4.16309C9.01965 3.80555 8.46347 3.78235 8.10617 4.11083L5.70851 6.31478V4.667C5.70851 4.18161 5.31511 3.78809 4.8296 3.78809Z" fill="white"/>
<path d="M31.5831 47.6887C32.0686 47.6887 32.462 47.2953 32.462 46.8098V39.6129C32.462 39.1273 32.0686 38.7339 31.5831 38.7339C31.0976 38.7339 30.7042 39.1273 30.7042 39.6129V41.5251L28.0664 38.9803C27.7173 38.6432 27.1607 38.6534 26.8237 39.0025C26.4867 39.3518 26.4967 39.9083 26.846 40.2452L30.0709 43.3565L27.1169 46.0718C26.7595 46.4002 26.7361 46.9562 27.0647 47.3136C27.238 47.5022 27.4746 47.5978 27.7119 47.5978C27.9244 47.5978 28.1377 47.5211 28.3064 47.3659L30.7042 45.1619V46.8097C30.7042 47.2953 31.0977 47.6887 31.5831 47.6887Z" fill="white"/>
<path d="M25.0135 14.6646C24.7276 14.5116 24.381 14.5285 24.1113 14.7082L20.7664 16.9382L18.3136 14.7797C17.9815 14.4875 17.4844 14.4875 17.1522 14.7797L14.6994 16.9382L11.3544 14.7082C11.0846 14.5282 10.7376 14.5117 10.4521 14.6646C10.1664 14.8176 9.98797 15.1155 9.98797 15.4395V22.1368H9.44633C8.96082 22.1368 8.56742 22.5302 8.56742 23.0157C8.56742 23.5012 8.96082 23.8946 9.44633 23.8946H9.98797V30.544C8.62355 30.9283 7.62042 32.1841 7.62042 33.6698C7.62042 35.4598 9.07683 36.9162 10.8669 36.9162H15.8388C17.3244 36.9162 18.5791 35.913 18.9635 34.5487H24.5988C25.0843 34.5487 25.4777 34.1553 25.4777 33.6698V29.8135H26.9665C27.258 29.8135 27.5307 29.6689 27.6943 29.4274C27.8578 29.1857 27.8909 28.8789 27.7826 28.6082L25.897 23.8946H26.0194C26.5049 23.8946 26.8983 23.5012 26.8983 23.0157C26.8983 22.5302 26.5049 22.1368 26.0194 22.1368H25.4777V15.4395C25.4777 15.1153 25.2992 14.8175 25.0135 14.6646ZM11.7458 17.0818L14.2859 18.7751C14.6168 18.9958 15.055 18.9667 15.3541 18.7036L17.7329 16.6103L20.1117 18.7036C20.4108 18.9668 20.8489 18.9958 21.1799 18.7751L23.7199 17.0818V22.1368H11.7458V17.0818ZM15.8388 35.1585H10.8669C10.046 35.1585 9.37824 34.4908 9.37824 33.6699C9.37824 32.849 10.046 32.1812 10.8669 32.1812H12.9978C13.4833 32.1812 13.8767 31.7878 13.8767 31.3022C13.8767 30.8167 13.4833 30.4233 12.9978 30.4233H11.7458V23.8946H13.6577V26.567C13.6577 27.0526 14.0511 27.446 14.5366 27.446C15.0221 27.446 15.4155 27.0526 15.4155 26.567V23.8946H17.3274V33.6698C17.3276 34.4907 16.6596 35.1585 15.8388 35.1585ZM24.5988 28.0557C24.1133 28.0557 23.7199 28.4491 23.7199 28.9346V32.7909H19.0854V23.8946H24.0037L25.6683 28.0557H24.5988Z" fill="white"/>
</svg>
