<svg xmlns="http://www.w3.org/2000/svg" version="1.1" xmlns:xlink="http://www.w3.org/1999/xlink" width="512" height="512" x="0" y="0" viewBox="0 0 512 512" style="enable-background:new 0 0 512 512" xml:space="preserve" class="hovered-paths"><g><path d="M105 295.486a65.159 65.159 0 0 1-7.539.436C61.86 295.922 33 267.062 33 231.461S61.86 167 97.461 167c32.039 0 58.619 23.374 63.617 54" style="stroke-width:30;stroke-miterlimit:10;" fill="none" stroke="#ffffff" stroke-width="30" stroke-miterlimit="10" data-original="#000000" opacity="1" class="hovered-path"></path><circle cx="171.591" cy="286.253" r="64.461" style="stroke-width:30;stroke-miterlimit:10;" fill="none" stroke="#ffffff" stroke-width="30" stroke-miterlimit="10" data-original="#000000" opacity="1" class="hovered-path"></circle><path d="M493 334H219M219 334l41.1-73.764h191.8L493 334 356 479.612zM259.968 260.236 356 334M452.032 260.236 356 334M356 479.612V326.313M250 17 125 55M204 41c44 95 2 193 2 193M128 178l76-137M73.053 365.893c0 40.346-32.707 73.053-73.053 73.054 40.346 0 73.054 32.707 73.054 73.053 0-40.346 32.707-73.053 73.053-73.054-40.346.001-73.054-32.707-73.054-73.053zM438.946 0c0 40.346-32.707 73.054-73.053 73.054 40.346 0 73.053 32.707 73.054 73.053 0-40.346 32.707-73.054 73.053-73.054-40.346 0-73.053-32.707-73.054-73.053zM295 144h30M198 472h30M32 79h30M368 194h30" style="stroke-width:30;stroke-miterlimit:10;" fill="none" stroke="#ffffff" stroke-width="30" stroke-miterlimit="10" data-original="#000000" opacity="1" class="hovered-path"></path></g></svg>