<svg xmlns="http://www.w3.org/2000/svg" version="1.1" xmlns:xlink="http://www.w3.org/1999/xlink" width="512" height="512" x="0" y="0" viewBox="0 0 513.403 513.403" style="enable-background:new 0 0 512 512" xml:space="preserve" class="hovered-paths"><g><path d="M15 15.434h217.766V233.2H15zM70.051 55.675v30M177.715 55.675v30M70.051 161.295v30M123.883 108.317v30M177.715 161.295v30" style="stroke-width:30;stroke-miterlimit:10;" fill="none" stroke="#ffffff" stroke-width="30" stroke-miterlimit="10" data-original="#000000" opacity="1" class="hovered-path"></path><path d="M229.323 228.932h217.766v217.766H229.323z" style="stroke-width:30;stroke-miterlimit:10;" transform="rotate(45.001 338.211 337.813)" fill="none" stroke="#ffffff" stroke-width="30" stroke-miterlimit="10" data-original="#000000" opacity="1" class="hovered-path"></path><path d="m424.101 328.05-21.213 21.213M273.286 326.605l-21.213 21.213M479.537 33.75l-37.602 37.602M467.017 129.717h45.578M383.063 45.968V.391M33.653 479.031l37.601-37.601M46.173 383.064H.595M130.127 466.813v45.578" style="stroke-width:30;stroke-miterlimit:10;" fill="none" stroke="#ffffff" stroke-width="30" stroke-miterlimit="10" data-original="#000000" opacity="1" class="hovered-path"></path></g></svg>