<svg xmlns="http://www.w3.org/2000/svg" version="1.1" xmlns:xlink="http://www.w3.org/1999/xlink" width="512" height="512" x="0" y="0" viewBox="0 0 512 512" style="enable-background:new 0 0 512 512" xml:space="preserve" class=""><g><path d="M456.016 181.511c-13.555-49.702-42.36-92.501-83.301-123.771-40.939-31.272-89.81-47.8-141.327-47.8-38.759 0-77.139 9.721-110.991 28.111-40.817 22.173-73.622 55.917-94.869 97.587C4.401 177.069-3.85 223.445 1.664 269.753l18.882 158.57 455.431 73.737L512 386.786zm19.04 184.454-173.962-41.236c-28.345-6.718-50.985-27.392-60.554-54.266 17.989-7.675 31.512-23.854 35.49-43.458h161.128zM186.865 215.003c0-16.599 13.504-30.103 30.103-30.103 16.598 0 30.102 13.504 30.102 30.103 0 16.598-13.504 30.102-30.102 30.102-16.599 0-30.103-13.504-30.103-30.102zm268.12 253.101L47.809 402.181 31.615 266.187c-4.804-40.354 2.382-80.759 20.784-116.847 18.466-36.215 46.959-65.533 82.396-84.784 29.447-15.997 62.848-24.452 96.594-24.452 44.842 0 87.381 14.388 123.018 41.607 35.636 27.219 60.709 64.474 72.508 107.736l2.017 7.395h-154.5c-7.723-24.382-30.56-42.104-57.463-42.104-33.231 0-60.266 27.035-60.266 60.266 0 30.962 23.474 56.534 53.558 59.883 11.683 39.161 43.513 69.627 83.879 79.194l182.93 43.362z" fill="#ffffff" opacity="1" data-original="#000000" class=""></path></g></svg>