<svg xmlns="http://www.w3.org/2000/svg" version="1.1" xmlns:xlink="http://www.w3.org/1999/xlink" width="512" height="512" x="0" y="0" viewBox="0 0 511.623 511.623" style="enable-background:new 0 0 512 512" xml:space="preserve" class=""><g><path d="M309.776 240.215H157.118M310.069 300.757H158.118M310.069 180.215H158.118M128.068 240.216h-54.33M128.118 300.757h-54.21M128.118 180.216h-54.21M222.723 420.757H73.444M159.736 120.216H73.444M286.302 360.757H158.118M128.118 360.757h-54.21M273.056 419.258h45.255l168.94-168.94c12.497-12.497 12.497-32.758 0-45.255s-32.758-12.497-45.255 0l-168.94 168.94v45.255zM463.653 273.915l-45.254-45.255" style="stroke-width:30;stroke-miterlimit:10;" fill="none" stroke="#ffffff" stroke-width="30" stroke-miterlimit="10" data-original="#000000" class="" opacity="1"></path><path d="M387.692 259.367V79.972l-64.75-64.75H15v481.18h372.692V349.877" style="stroke-width:30;stroke-miterlimit:10;" fill="none" stroke="#ffffff" stroke-width="30" stroke-miterlimit="10" data-original="#000000" class="" opacity="1"></path><path d="M387.692 96.548h-81.326V15.222" style="stroke-width:30;stroke-miterlimit:10;" fill="none" stroke="#ffffff" stroke-width="30" stroke-miterlimit="10" data-original="#000000" class="" opacity="1"></path></g></svg>