<svg width="61" height="60" viewBox="0 0 61 60" fill="none" xmlns="http://www.w3.org/2000/svg">
<path d="M30.1624 50.3226C28.5617 50.3226 27.2591 51.6252 27.2591 53.2258C27.2591 54.8265 28.5617 56.129 30.1624 56.129C31.763 56.129 33.0656 54.8265 33.0656 53.2258C33.0656 51.6252 31.763 50.3226 30.1624 50.3226ZM30.1624 54.1935C29.6282 54.1935 29.1946 53.759 29.1946 53.2258C29.1946 52.6926 29.6282 52.2581 30.1624 52.2581C30.6965 52.2581 31.1301 52.6926 31.1301 53.2258C31.1301 53.759 30.6965 54.1935 30.1624 54.1935Z" fill="white"/>
<path d="M60.1624 30C60.1624 26.8432 58.6362 24.0445 56.2914 22.2765V6.77419C56.2914 3.03871 53.2517 0 49.5172 0H10.8075C7.073 0 4.03332 3.03871 4.03332 6.77419V22.2765C1.68848 24.0445 0.162354 26.8432 0.162354 30C0.162354 34.0229 2.63106 37.4777 6.13235 38.9361C8.95526 44.6884 14.2488 48.7394 20.4849 49.9452V50.3226C20.4849 55.6587 24.8262 60 30.1624 60C35.4985 60 39.8398 55.6587 39.8398 50.3226V49.9452C46.0759 48.7394 51.3694 44.6884 54.1924 38.9361C57.6936 37.4777 60.1624 34.0229 60.1624 30ZM25.3236 18.3871C25.3236 18.9203 24.8901 19.3548 24.3559 19.3548C23.8217 19.3548 23.3882 18.9203 23.3882 18.3871C23.3882 17.8539 23.8217 17.4194 24.3559 17.4194H25.3236V16.4516C25.3236 15.9184 25.7572 15.4839 26.2914 15.4839C26.8256 15.4839 27.2591 15.9184 27.2591 16.4516V17.4194H28.2269C28.7611 17.4194 29.1946 17.8539 29.1946 18.3871C29.1946 18.9203 28.7611 19.3548 28.2269 19.3548C27.6927 19.3548 27.2591 18.9203 27.2591 18.3871H25.3236ZM29.1946 15.6581C29.152 15.6426 29.1133 15.6223 29.0698 15.6087C28.7078 14.4174 27.5998 13.5484 26.2914 13.5484C24.983 13.5484 23.8749 14.4174 23.513 15.6087C22.3217 15.9706 21.4527 17.0787 21.4527 18.3871C21.4527 19.9877 22.7553 21.2903 24.3559 21.2903C24.6965 21.2903 25.0198 21.2255 25.3236 21.1171V23.2258H27.2591V21.1171C27.563 21.2255 27.8862 21.2903 28.2269 21.2903C28.5675 21.2903 28.8907 21.2206 29.1946 21.1123V22.2581C29.1946 23.8587 30.4972 25.1613 32.0978 25.1613H33.0656V26.129C33.0656 26.6623 32.632 27.0968 32.0978 27.0968H20.4849C19.9507 27.0968 19.5172 26.6623 19.5172 26.129V10.6452C19.5172 10.1119 19.9507 9.67742 20.4849 9.67742H29.1946V15.6581ZM32.0978 23.2258C31.5636 23.2258 31.1301 22.7913 31.1301 22.2581V6.77419C31.1301 6.24097 31.5636 5.80645 32.0978 5.80645H43.7107C44.2449 5.80645 44.6785 6.24097 44.6785 6.77419V22.2765C44.2924 22.5677 43.9236 22.8813 43.5859 23.2258H32.0978ZM56.2043 29.0323C56.0553 28.1526 55.7107 27.3397 55.2124 26.641L56.5933 25.261C57.4256 26.3313 57.983 27.6223 58.1601 29.0323H56.2043ZM50.4849 33.871C48.3501 33.871 46.614 32.1348 46.614 30C46.614 27.8652 48.3501 26.129 50.4849 26.129C52.6198 26.129 54.3559 27.8652 54.3559 30C54.3559 32.1348 52.6198 33.871 50.4849 33.871ZM55.2249 23.8916L53.844 25.2716C53.1453 24.7742 52.3324 24.4297 51.4527 24.2806V22.3248C52.8636 22.5019 54.1546 23.0594 55.2249 23.8916ZM49.5172 24.2806C48.6375 24.4297 47.8246 24.7742 47.1259 25.2716L45.7449 23.8916C46.8153 23.0594 48.1062 22.5019 49.5172 22.3248V24.2806ZM44.3765 25.261L45.7575 26.641C45.2591 27.3397 44.9146 28.1526 44.7656 29.0323H42.8098C42.9869 27.6223 43.5443 26.3303 44.3765 25.261ZM44.7656 30.9677C44.9146 31.8474 45.2591 32.6603 45.7575 33.359L44.3765 34.739C43.5443 33.6687 42.9869 32.3777 42.8098 30.9677H44.7656ZM47.1259 34.7274C47.8246 35.2258 48.6375 35.5703 49.5172 35.7194V37.6752C48.1062 37.4981 46.8153 36.9406 45.7449 36.1084L47.1259 34.7274ZM51.4527 35.7194C52.3324 35.5703 53.1453 35.2258 53.844 34.7284L55.2249 36.1084C54.1546 36.9406 52.8636 37.4981 51.4527 37.6752V35.7194ZM55.2124 33.359C55.7107 32.6603 56.0553 31.8474 56.2043 30.9677H58.1601C57.983 32.3777 57.4256 33.6697 56.5933 34.739L55.2124 33.359ZM5.9688 6.77419C5.9688 4.10613 8.13945 1.93548 10.8075 1.93548H49.5172C52.1853 1.93548 54.3559 4.10613 54.3559 6.77419V21.1365C53.1694 20.6158 51.8611 20.3226 50.4849 20.3226C49.1088 20.3226 47.8004 20.6158 46.614 21.1365V6.77419C46.614 5.17355 45.3114 3.87097 43.7107 3.87097H32.0978C30.4972 3.87097 29.1946 5.17355 29.1946 6.77419V7.74194H20.4849C18.8843 7.74194 17.5817 9.04452 17.5817 10.6452V24.2187C15.8156 21.8594 13.0072 20.3226 9.83977 20.3226C8.46364 20.3226 7.15526 20.6158 5.9688 21.1365V6.77419ZM15.5591 29.0323C15.4101 28.1526 15.0656 27.3397 14.5672 26.641L15.9482 25.261C16.7804 26.3313 17.3378 27.6223 17.5149 29.0323H15.5591ZM9.83977 33.871C7.70493 33.871 5.9688 32.1348 5.9688 30C5.9688 27.8652 7.70493 26.129 9.83977 26.129C11.9746 26.129 13.7107 27.8652 13.7107 30C13.7107 32.1348 11.9746 33.871 9.83977 33.871ZM13.1988 25.2726C12.5001 24.7742 11.6872 24.4297 10.8075 24.2806V22.3248C12.2185 22.5019 13.5094 23.0594 14.5798 23.8916L13.1988 25.2726ZM8.87203 24.2806C7.99235 24.4297 7.17945 24.7742 6.48074 25.2716L5.09977 23.8916C6.1701 23.0594 7.46106 22.5019 8.87203 22.3248V24.2806ZM5.11235 26.641C4.61397 27.3397 4.26945 28.1526 4.12042 29.0323H2.16461C2.34171 27.6223 2.89913 26.3303 3.73139 25.261L5.11235 26.641ZM4.12042 30.9677C4.26945 31.8474 4.61397 32.6603 5.11235 33.359L3.73139 34.739C2.89913 33.6687 2.34171 32.3777 2.16461 30.9677H4.12042ZM6.48074 34.7274C7.17945 35.2258 7.99235 35.5703 8.87203 35.7194V37.6752C7.46106 37.4981 6.1701 36.9406 5.09977 36.1084L6.48074 34.7274ZM10.8075 35.7194C11.6872 35.5703 12.5001 35.2258 13.1988 34.7284L14.5798 36.1084C13.5094 36.9406 12.2185 37.4981 10.8075 37.6752V35.7194ZM15.9482 34.739L14.5672 33.359C15.0656 32.6603 15.4101 31.8474 15.5591 30.9677H17.5149C17.3378 32.3777 16.7804 33.6697 15.9482 34.739ZM37.9043 44.5161H31.1301V42.4026C32.2536 42.0019 33.0656 40.9374 33.0656 39.6774V35.4087C35.8991 36.5603 37.9043 39.3387 37.9043 42.5806V44.5161ZM31.1301 39.6774C31.1301 40.2106 30.6965 40.6452 30.1624 40.6452C29.6282 40.6452 29.1946 40.2106 29.1946 39.6774V34.9055C29.512 34.8658 29.8343 34.8387 30.1624 34.8387C30.4904 34.8387 30.8127 34.8658 31.1301 34.9055V39.6774ZM29.1946 42.4026V44.5161H22.4204V42.5806C22.4204 39.3387 24.4256 36.5603 27.2591 35.4087V39.6774C27.2591 40.9374 28.0711 42.0019 29.1946 42.4026ZM30.1624 58.0645C25.8936 58.0645 22.4204 54.5913 22.4204 50.3226V46.4516H37.9043V50.3226C37.9043 54.5913 34.4311 58.0645 30.1624 58.0645ZM39.8398 47.9777V42.5806C39.8398 37.2445 35.4985 32.9032 30.1624 32.9032C24.8262 32.9032 20.4849 37.2445 20.4849 42.5806V47.9777C15.5659 46.9229 11.3272 43.8948 8.70171 39.6048C9.07526 39.6484 9.45461 39.6774 9.83977 39.6774C15.1759 39.6774 19.5172 35.3361 19.5172 30C19.5172 29.6032 19.4862 29.2142 19.4388 28.83C19.7649 28.9558 20.1153 29.0323 20.4849 29.0323H32.0978C33.6985 29.0323 35.0011 27.7297 35.0011 26.129V25.1613H42.1169C41.2894 26.5868 40.8075 28.2368 40.8075 30C40.8075 35.3361 45.1488 39.6774 50.4849 39.6774C50.8701 39.6774 51.2494 39.6484 51.623 39.6048C48.9975 43.8948 44.7588 46.9229 39.8398 47.9777Z" fill="white"/>
<path d="M40.6827 11.7377C40.3207 10.5465 39.2127 9.67742 37.9043 9.67742C36.5959 9.67742 35.4878 10.5465 35.1259 11.7377C33.9346 12.0997 33.0656 13.2077 33.0656 14.5161C33.0656 16.1168 34.3682 17.4194 35.9688 17.4194C36.3094 17.4194 36.6327 17.3545 36.9365 17.2461V19.3548H38.872V17.2461C39.1759 17.3545 39.4991 17.4194 39.8398 17.4194C41.4404 17.4194 42.743 16.1168 42.743 14.5161C42.743 13.2077 41.874 12.0997 40.6827 11.7377ZM39.8398 15.4839C39.3056 15.4839 38.872 15.0494 38.872 14.5161H36.9365C36.9365 15.0494 36.503 15.4839 35.9688 15.4839C35.4346 15.4839 35.0011 15.0494 35.0011 14.5161C35.0011 13.9829 35.4346 13.5484 35.9688 13.5484H36.9365V12.5806C36.9365 12.0474 37.3701 11.6129 37.9043 11.6129C38.4385 11.6129 38.872 12.0474 38.872 12.5806V13.5484H39.8398C40.374 13.5484 40.8075 13.9829 40.8075 14.5161C40.8075 15.0494 40.374 15.4839 39.8398 15.4839Z" fill="white"/>
<path d="M9.83977 6.77419C9.83977 6.24097 10.2733 5.80645 10.8075 5.80645H13.7107V3.87097H10.8075C9.20687 3.87097 7.90429 5.17355 7.90429 6.77419V12.5806H9.83977V6.77419Z" fill="white"/>
<path d="M7.90429 14.5161H9.83977V16.4516H7.90429V14.5161Z" fill="white"/>
</svg>
