<svg width="61" height="60" viewBox="0 0 61 60" fill="none" xmlns="http://www.w3.org/2000/svg">
<path d="M51.3782 8.78684C45.7118 3.12059 38.1782 0 30.165 0C22.1519 0 14.6182 3.12059 8.95188 8.78684C3.28563 14.4532 0.165039 21.9868 0.165039 30C0.165039 34.9358 1.38965 39.8291 3.70645 44.1507C3.93578 44.5785 4.46852 44.7393 4.89625 44.51C5.3241 44.2807 5.485 43.748 5.25555 43.3202C3.07527 39.2531 1.92285 34.6471 1.92285 30C1.92285 22.4564 4.86062 15.3642 10.1949 10.0298C15.5291 4.69547 22.6214 1.75781 30.165 1.75781C37.7086 1.75781 44.8008 4.69559 50.1352 10.0298C55.4696 15.3641 58.4072 22.4564 58.4072 30C58.4072 37.5436 55.4695 44.6358 50.1352 49.9702C44.8009 55.3045 37.7086 58.2422 30.165 58.2422C20.9779 58.2422 12.3343 53.7486 7.04348 46.2219C6.76445 45.8249 6.21602 45.7293 5.81898 46.0083C5.42184 46.2874 5.32621 46.8356 5.60535 47.2328C8.31906 51.0934 11.9521 54.3018 16.1114 56.5111C20.4085 58.7936 25.2681 60 30.165 60C38.1782 60 45.7118 56.8794 51.3782 51.2132C57.0445 45.5468 60.165 38.0132 60.165 30C60.165 21.9868 57.0445 14.4532 51.3782 8.78684Z" fill="white"/>
<path d="M30.165 55.4917C36.9741 55.4917 43.3756 52.8401 48.1904 48.0253C53.0051 43.2107 55.6567 36.8091 55.6567 30C55.6567 23.1909 53.0051 16.7895 48.1904 11.9747C43.3756 7.15992 36.9741 4.50832 30.165 4.50832C23.356 4.50832 16.9545 7.15992 12.1397 11.9747C7.32496 16.7895 4.67336 23.1909 4.67336 30C4.67336 36.8091 7.32496 43.2105 12.1397 48.0253C16.9545 52.8401 23.356 55.4917 30.165 55.4917ZM10.0711 42.6161L15.1066 39.7089C16.4904 41.8479 18.3171 43.6746 20.4562 45.0585L17.549 50.0939C14.5323 48.1931 11.9719 45.6327 10.0711 42.6161ZM31.0439 12.0998V6.28418C34.7229 6.41883 38.1905 7.39453 41.2602 9.02484L38.3498 14.0659C36.1177 12.9168 33.634 12.2277 31.0439 12.0998ZM29.2861 12.0991C26.6635 12.2264 24.1872 12.9199 21.9769 14.0599L19.0698 9.02473C22.1396 7.39441 25.607 6.41871 29.2861 6.28406V12.0991ZM30.165 13.8352C36.9452 13.8352 43.0538 18.1154 45.3653 24.4861C45.5309 24.9424 46.0349 25.1779 46.4912 25.0125C46.9476 24.8469 47.1832 24.3428 47.0177 23.8866C46.7574 23.1693 46.4529 22.4762 46.1095 21.8093L51.1401 18.9048C52.7704 21.9745 53.7461 25.442 53.8807 29.1211H48.0636C48.0367 28.5666 47.9871 28.0138 47.91 27.4697C47.842 26.9891 47.3978 26.6543 46.9165 26.7227C46.4359 26.7908 46.1015 27.2355 46.1696 27.7162C46.2757 28.4662 46.3296 29.2346 46.3296 30C46.3296 38.9134 39.0782 46.1648 30.1648 46.1648C21.2514 46.1648 14.0002 38.9134 14.0002 30C14.0002 21.0866 21.2516 13.8352 30.165 13.8352ZM48.0659 30.8789H53.8809C53.7462 34.5579 52.7705 38.0255 51.1402 41.0952L46.105 38.1881C47.2451 35.9779 47.9386 33.5016 48.0659 30.8789ZM29.2861 47.9009V53.7158C25.6071 53.5812 22.1396 52.6055 19.0698 50.9752L21.9769 45.94C24.1872 47.0801 26.6635 47.7736 29.2861 47.9009ZM31.0439 47.9009C33.6666 47.7736 36.1429 47.0801 38.3532 45.9401L41.2602 50.9753C38.1905 52.6056 34.723 53.5813 31.0439 53.7159V47.9009ZM12.2642 29.1211H6.4491C6.58375 25.4421 7.55945 21.9745 9.18977 18.9048L14.225 21.8119C13.085 24.0222 12.3914 26.4984 12.2642 29.1211ZM12.2642 30.8789C12.3914 33.5016 13.085 35.9779 14.225 38.1881L9.18977 41.0952C7.55945 38.0255 6.58375 34.558 6.4491 30.8789H12.2642ZM42.7811 50.0939L39.8739 45.0585C42.0129 43.6746 43.8396 41.8479 45.2235 39.7089L50.2589 42.6161C48.3582 45.6327 45.7977 48.1931 42.7811 50.0939ZM50.2589 17.3839L45.2287 20.2882C43.8339 18.1329 41.9988 16.3166 39.8719 14.9452L42.7812 9.90609C45.7977 11.8069 48.3582 14.3673 50.2589 17.3839ZM17.549 9.90609L20.4562 14.9415C18.3171 16.3254 16.4904 18.1521 15.1066 20.2911L10.0711 17.3839C11.9719 14.3673 14.5323 11.8069 17.549 9.90609Z" fill="white"/>
<path d="M16.3346 30C16.3346 31.9922 17.9553 33.6129 19.9475 33.6129C21.07 33.6129 22.1212 33.0885 22.8003 32.216H25.8814C26.3406 33.1 27.065 33.8244 27.9489 34.2837V37.3648C27.0764 38.0439 26.552 39.0952 26.552 40.2176C26.552 42.2098 28.1729 43.8305 30.1649 43.8305C32.157 43.8305 33.7778 42.2098 33.7778 40.2176C33.7778 39.095 33.2534 38.0439 32.3809 37.3648V34.2837C33.265 33.8244 33.9893 33.1001 34.4485 32.216H37.5296C38.2087 33.0885 39.26 33.6129 40.3824 33.6129C42.3746 33.6129 43.9953 31.9921 43.9953 30C43.9953 28.0079 42.3746 26.3871 40.3824 26.3871C39.2598 26.3871 38.2087 26.9115 37.5296 27.784H34.4485C33.9892 26.9 33.2649 26.1756 32.3809 25.7163V22.6352C33.2534 21.9561 33.7778 20.9048 33.7778 19.7824C33.7778 17.7902 32.157 16.1695 30.1649 16.1695C28.1729 16.1695 26.552 17.7902 26.552 19.7824C26.552 20.905 27.0764 21.9561 27.9489 22.6352V25.7163C27.0648 26.1756 26.3405 26.8999 25.8814 27.784H22.8003C22.1212 26.9115 21.0699 26.3871 19.9475 26.3871C17.9553 26.3871 16.3346 28.0078 16.3346 30ZM30.165 26.933C31.8562 26.933 33.2321 28.3089 33.2321 30C33.2321 31.6911 31.8562 33.067 30.165 33.067C28.4739 33.067 27.098 31.6911 27.098 30C27.098 28.3089 28.4739 26.933 30.165 26.933ZM31.0713 38.5988C31.6566 38.928 32.0201 39.5483 32.0201 40.2175C32.0201 41.2404 31.1879 42.0725 30.165 42.0725C29.1422 42.0725 28.31 41.2403 28.31 40.2175C28.31 39.5483 28.6736 38.928 29.2588 38.5988C29.5355 38.443 29.7068 38.1503 29.7068 37.8327V34.8025C29.8578 34.8168 30.0105 34.8247 30.165 34.8247C30.3196 34.8247 30.4723 34.8166 30.6232 34.8025V37.8327C30.6232 38.1503 30.7946 38.4431 31.0713 38.5988ZM37.9979 29.5418C38.3153 29.5418 38.6082 29.3706 38.7639 29.0938C39.0932 28.5084 39.7135 28.1449 40.3826 28.1449C41.4055 28.1449 42.2377 28.9772 42.2377 30C42.2377 31.0228 41.4054 31.8551 40.3826 31.8551C39.7135 31.8551 39.0932 31.4914 38.7639 30.9062C38.6082 30.6295 38.3154 30.4582 37.9979 30.4582H34.9675C34.9818 30.3073 34.9899 30.1546 34.9899 30C34.9899 29.8454 34.9818 29.6927 34.9675 29.5418H37.9979ZM29.2588 21.4012C28.6735 21.072 28.31 20.4517 28.31 19.7825C28.31 18.7596 29.1422 17.9275 30.165 17.9275C31.1879 17.9275 32.0201 18.7597 32.0201 19.7825C32.0201 20.4517 31.6565 21.072 31.0713 21.4012C30.7946 21.557 30.6232 21.8497 30.6232 22.1673V25.1975C30.4723 25.1832 30.3196 25.1753 30.165 25.1753C30.0105 25.1753 29.8578 25.1834 29.7068 25.1975V22.1672C29.7068 21.8497 29.5355 21.5569 29.2588 21.4012ZM19.9475 28.1449C20.6166 28.1449 21.2369 28.5086 21.5662 29.0938C21.7219 29.3705 22.0146 29.5418 22.3322 29.5418H25.3626C25.3483 29.6927 25.3402 29.8454 25.3402 30C25.3402 30.1546 25.3483 30.3073 25.3626 30.4582H22.3322C22.0148 30.4582 21.7219 30.6294 21.5662 30.9062C21.2369 31.4916 20.6166 31.8551 19.9475 31.8551C18.9245 31.8551 18.0924 31.0228 18.0924 30C18.0924 28.9772 18.9246 28.1449 19.9475 28.1449Z" fill="white"/>
</svg>
