<svg xmlns="http://www.w3.org/2000/svg" version="1.1" xmlns:xlink="http://www.w3.org/1999/xlink" width="512" height="512" x="0" y="0" viewBox="0 0 512 512" style="enable-background:new 0 0 512 512" xml:space="preserve" class=""><g><path d="M499.54 139.683c-18.148-3.119-32.438-17.408-35.557-35.557l-2.142-12.459H50.157l-2.141 12.46c-3.119 18.149-17.408 32.437-35.556 35.557L0 141.824v228.352l12.46 2.141c18.148 3.119 32.438 17.408 35.556 35.557l2.141 12.46h411.686l2.142-12.459c3.119-18.149 17.408-32.438 35.557-35.557L512 370.176V141.824zM482 346.04c-20.571 7.421-36.872 23.721-44.293 44.293H399V121.666h38.707c7.421 20.572 23.722 36.873 44.293 44.293zM30 165.96c20.572-7.421 36.873-23.721 44.293-44.293H369v268.667H74.293C66.873 369.761 50.572 353.46 30 346.04z" fill="#ffffff" opacity="1" data-original="#000000" class=""></path><path d="M91.666 196h30v53.333h-30zM155.667 196h30v53.333h-30zM219.667 196h30v53.333h-30zM283.667 196h30v53.333h-30zM91.999 287.667h138.667v30H91.999z" fill="#ffffff" opacity="1" data-original="#000000" class=""></path></g></svg>