<svg xmlns="http://www.w3.org/2000/svg" version="1.1" xmlns:xlink="http://www.w3.org/1999/xlink" width="512" height="512" x="0" y="0" viewBox="0 0 512 512" style="enable-background:new 0 0 512 512" xml:space="preserve" class="hovered-paths"><g><path d="M316 331c0-33.086-26.914-60-60-60s-60 26.914-60 60 26.914 60 60 60 60-26.914 60-60zm-60 30c-16.543 0-30-13.457-30-30s13.457-30 30-30 30 13.457 30 30-13.457 30-30 30zM512 211c0-33.426-28.113-60-61-60-33.086 0-60 26.914-60 60s26.914 60 60 60c16.004 0 31.191-6.184 42.766-17.414C505.523 242.176 512 227.055 512 211zm-61 30c-16.543 0-30-13.457-30-30s13.457-30 30-30c16.805 0 31 13.738 31 30s-14.195 30-31 30zM316 61c0-32.895-26.586-61-60-61-33.422 0-60 28.113-60 61 0 33.086 26.914 60 60 60s60-26.914 60-60zm-60 30c-16.543 0-30-13.457-30-30 0-16.805 13.738-31 30-31s30 14.195 30 31c0 16.543-13.457 30-30 30zm0 0" fill="#ffffff" opacity="1" data-original="#000000" class="hovered-path"></path><path d="M346 230.227V211c0-49.625-40.375-90-90-90s-90 40.375-90 90v19.07c-26.39 12.305-51.05 31.563-64.844 57.328C90.402 277.246 75.922 271 60 271c-33.086 0-60 26.914-60 60v60h112.21c16.833 20.973 40.552 36.176 65.743 45.887C170.168 450.52 166 465.965 166 482v30h180v-30c0-16.04-4.172-31.492-11.96-45.129 24.839-9.617 48.401-24.738 65.12-45.871H512v-60c0-33.426-28.113-60-61-60-15.883 0-30.328 6.215-41.074 16.32-13.57-25.562-37.762-44.757-63.926-57.093zM196 211c0-33.086 26.914-60 60-60s60 26.914 60 60v8.094c-18.879-5.309-39.156-8.094-60-8.094-20.813 0-41.09 2.77-60 8.047zM90 361H30v-30c0-16.543 13.457-30 30-30s30 13.457 30 30zm106 121c0-33.637 26.914-61 60-61s60 27.363 60 61zm117.613-69.723C297.426 398.507 277.262 391 256 391c-21.266 0-41.43 7.508-57.617 21.281C151.187 397.266 120 365.27 120 331c0-22.941 13.488-44.934 37.984-61.922C184.09 250.973 218.898 241 256 241c37.02 0 71.633 9.96 97.465 28.043C377.672 285.984 391 307.988 391 331c0 34.402-30.79 66.387-77.387 81.277zM451 301c16.805 0 31 13.738 31 30v30h-61v-30c0-16.543 13.457-30 30-30zm0 0" fill="#ffffff" opacity="1" data-original="#000000" class="hovered-path"></path><path d="M120 211c0-33.086-26.914-60-60-60S0 177.914 0 211s26.914 60 60 60 60-26.914 60-60zm-60 30c-16.543 0-30-13.457-30-30s13.457-30 30-30 30 13.457 30 30-13.457 30-30 30zm0 0" fill="#ffffff" opacity="1" data-original="#000000" class="hovered-path"></path></g></svg>