<svg xmlns="http://www.w3.org/2000/svg" version="1.1" xmlns:xlink="http://www.w3.org/1999/xlink" width="512" height="512" x="0" y="0" viewBox="0 0 682.667 682.667" style="enable-background:new 0 0 512 512" xml:space="preserve" class="hovered-paths"><g><defs><clipPath id="a" clipPathUnits="userSpaceOnUse"><path d="M0 512h512V0H0Z" fill="#ffffff" opacity="1" data-original="#000000"></path></clipPath></defs><g clip-path="url(#a)" transform="matrix(1.33333 0 0 -1.33333 0 682.667)"><path d="M0 0h-122.641v6.246c0 27.614 22.386 50 50 50H-50c27.614 0 50-22.386 50-50z" style="stroke-width:30;stroke-linecap:butt;stroke-linejoin:miter;stroke-miterlimit:10;stroke-dasharray:none;stroke-opacity:1" transform="translate(317.32 356)" fill="none" stroke="#ffffff" stroke-width="30" stroke-linecap="butt" stroke-linejoin="miter" stroke-miterlimit="10" stroke-dasharray="none" stroke-opacity="" data-original="#000000" opacity="1" class="hovered-path"></path><path d="M0 0c0-19.88-16.116-35.996-35.996-35.996-19.88 0-35.996 16.116-35.996 35.996v12.607c0 19.88 16.116 35.997 35.996 35.997C-16.116 48.604 0 32.487 0 12.607Z" style="stroke-width:30;stroke-linecap:butt;stroke-linejoin:miter;stroke-miterlimit:10;stroke-dasharray:none;stroke-opacity:1" transform="translate(291.996 448.397)" fill="none" stroke="#ffffff" stroke-width="30" stroke-linecap="butt" stroke-linejoin="miter" stroke-miterlimit="10" stroke-dasharray="none" stroke-opacity="" data-original="#000000" opacity="1" class="hovered-path"></path><path d="M0 0h-122.641v6.246c0 27.614 22.386 50 50 50H-50c27.614 0 50-22.386 50-50z" style="stroke-width:30;stroke-linecap:butt;stroke-linejoin:miter;stroke-miterlimit:10;stroke-dasharray:none;stroke-opacity:1" transform="translate(194.68 356)" fill="none" stroke="#ffffff" stroke-width="30" stroke-linecap="butt" stroke-linejoin="miter" stroke-miterlimit="10" stroke-dasharray="none" stroke-opacity="" data-original="#000000" opacity="1" class="hovered-path"></path><path d="M0 0c0-19.88-16.116-35.996-35.996-35.996-19.88 0-35.996 16.116-35.996 35.996v12.607c0 19.88 16.116 35.997 35.996 35.997C-16.116 48.604 0 32.487 0 12.607Z" style="stroke-width:30;stroke-linecap:butt;stroke-linejoin:miter;stroke-miterlimit:10;stroke-dasharray:none;stroke-opacity:1" transform="translate(169.356 448.397)" fill="none" stroke="#ffffff" stroke-width="30" stroke-linecap="butt" stroke-linejoin="miter" stroke-miterlimit="10" stroke-dasharray="none" stroke-opacity="" data-original="#000000" opacity="1" class="hovered-path"></path><path d="M0 0h-122.641v6.246c0 27.614 22.386 50 50 50H-50c27.614 0 50-22.386 50-50z" style="stroke-width:30;stroke-linecap:butt;stroke-linejoin:miter;stroke-miterlimit:10;stroke-dasharray:none;stroke-opacity:1" transform="translate(439.96 356)" fill="none" stroke="#ffffff" stroke-width="30" stroke-linecap="butt" stroke-linejoin="miter" stroke-miterlimit="10" stroke-dasharray="none" stroke-opacity="" data-original="#000000" opacity="1" class="hovered-path"></path><path d="M0 0c0-19.88-16.116-35.996-35.996-35.996-19.88 0-35.996 16.116-35.996 35.996v12.607c0 19.88 16.116 35.997 35.996 35.997C-16.116 48.604 0 32.487 0 12.607Z" style="stroke-width:30;stroke-linecap:butt;stroke-linejoin:miter;stroke-miterlimit:10;stroke-dasharray:none;stroke-opacity:1" transform="translate(414.637 448.397)" fill="none" stroke="#ffffff" stroke-width="30" stroke-linecap="butt" stroke-linejoin="miter" stroke-miterlimit="10" stroke-dasharray="none" stroke-opacity="" data-original="#000000" opacity="1" class="hovered-path"></path><path d="M0 0h122.641v-6.246c0-27.614-22.386-50-50-50H50c-27.614 0-50 22.386-50 50z" style="stroke-width:30;stroke-linecap:butt;stroke-linejoin:miter;stroke-miterlimit:10;stroke-dasharray:none;stroke-opacity:1" transform="translate(194.68 156)" fill="none" stroke="#ffffff" stroke-width="30" stroke-linecap="butt" stroke-linejoin="miter" stroke-miterlimit="10" stroke-dasharray="none" stroke-opacity="" data-original="#000000" opacity="1" class="hovered-path"></path><path d="M0 0c0 19.88 16.116 35.996 35.996 35.996 19.88 0 35.996-16.116 35.996-35.996v-12.607c0-19.88-16.116-35.997-35.996-35.997C16.116-48.604 0-32.487 0-12.607Z" style="stroke-width:30;stroke-linecap:butt;stroke-linejoin:miter;stroke-miterlimit:10;stroke-dasharray:none;stroke-opacity:1" transform="translate(220.004 63.603)" fill="none" stroke="#ffffff" stroke-width="30" stroke-linecap="butt" stroke-linejoin="miter" stroke-miterlimit="10" stroke-dasharray="none" stroke-opacity="" data-original="#000000" opacity="1" class="hovered-path"></path><path d="M0 0h122.641v-6.246c0-27.614-22.386-50-50-50H50c-27.614 0-50 22.386-50 50z" style="stroke-width:30;stroke-linecap:butt;stroke-linejoin:miter;stroke-miterlimit:10;stroke-dasharray:none;stroke-opacity:1" transform="translate(317.32 156)" fill="none" stroke="#ffffff" stroke-width="30" stroke-linecap="butt" stroke-linejoin="miter" stroke-miterlimit="10" stroke-dasharray="none" stroke-opacity="" data-original="#000000" opacity="1" class="hovered-path"></path><path d="M0 0c0 19.88 16.116 35.996 35.996 35.996 19.88 0 35.996-16.116 35.996-35.996v-12.607c0-19.88-16.116-35.997-35.996-35.997C16.116-48.604 0-32.487 0-12.607Z" style="stroke-width:30;stroke-linecap:butt;stroke-linejoin:miter;stroke-miterlimit:10;stroke-dasharray:none;stroke-opacity:1" transform="translate(342.644 63.603)" fill="none" stroke="#ffffff" stroke-width="30" stroke-linecap="butt" stroke-linejoin="miter" stroke-miterlimit="10" stroke-dasharray="none" stroke-opacity="" data-original="#000000" opacity="1" class="hovered-path"></path><path d="M0 0h122.641v-6.246c0-27.614-22.386-50-50-50H50c-27.614 0-50 22.386-50 50z" style="stroke-width:30;stroke-linecap:butt;stroke-linejoin:miter;stroke-miterlimit:10;stroke-dasharray:none;stroke-opacity:1" transform="translate(72.04 156)" fill="none" stroke="#ffffff" stroke-width="30" stroke-linecap="butt" stroke-linejoin="miter" stroke-miterlimit="10" stroke-dasharray="none" stroke-opacity="" data-original="#000000" opacity="1" class="hovered-path"></path><path d="M0 0c0 19.88 16.116 35.996 35.996 35.996 19.88 0 35.996-16.116 35.996-35.996v-12.607c0-19.88-16.116-35.997-35.996-35.997C16.116-48.604 0-32.487 0-12.607Z" style="stroke-width:30;stroke-linecap:butt;stroke-linejoin:miter;stroke-miterlimit:10;stroke-dasharray:none;stroke-opacity:1" transform="translate(97.363 63.603)" fill="none" stroke="#ffffff" stroke-width="30" stroke-linecap="butt" stroke-linejoin="miter" stroke-miterlimit="10" stroke-dasharray="none" stroke-opacity="" data-original="#000000" opacity="1" class="hovered-path"></path><path d="M0 0h-282c-55.229 0-100 44.771-100 100s44.771 100 100 100H0c55.229 0 100-44.771 100-100S55.229 0 0 0Z" style="stroke-width:30;stroke-linecap:butt;stroke-linejoin:miter;stroke-miterlimit:10;stroke-dasharray:none;stroke-opacity:1" transform="translate(397 156)" fill="none" stroke="#ffffff" stroke-width="30" stroke-linecap="butt" stroke-linejoin="miter" stroke-miterlimit="10" stroke-dasharray="none" stroke-opacity="" data-original="#000000" opacity="1" class="hovered-path"></path><path d="M0 0v-40.5" style="stroke-width:30;stroke-linecap:butt;stroke-linejoin:miter;stroke-miterlimit:10;stroke-dasharray:none;stroke-opacity:1" transform="translate(103.36 311)" fill="none" stroke="#ffffff" stroke-width="30" stroke-linecap="butt" stroke-linejoin="miter" stroke-miterlimit="10" stroke-dasharray="none" stroke-opacity="" data-original="#000000" opacity="1" class="hovered-path"></path><path d="M0 0v-40.5" style="stroke-width:30;stroke-linecap:butt;stroke-linejoin:miter;stroke-miterlimit:10;stroke-dasharray:none;stroke-opacity:1" transform="translate(103.36 241.5)" fill="none" stroke="#ffffff" stroke-width="30" stroke-linecap="butt" stroke-linejoin="miter" stroke-miterlimit="10" stroke-dasharray="none" stroke-opacity="" data-original="#000000" opacity="1" class="hovered-path"></path><path d="M0 0v-40.5" style="stroke-width:30;stroke-linecap:butt;stroke-linejoin:miter;stroke-miterlimit:10;stroke-dasharray:none;stroke-opacity:1" transform="translate(163.36 311)" fill="none" stroke="#ffffff" stroke-width="30" stroke-linecap="butt" stroke-linejoin="miter" stroke-miterlimit="10" stroke-dasharray="none" stroke-opacity="" data-original="#000000" opacity="1" class="hovered-path"></path><path d="M0 0v-40.5" style="stroke-width:30;stroke-linecap:butt;stroke-linejoin:miter;stroke-miterlimit:10;stroke-dasharray:none;stroke-opacity:1" transform="translate(163.36 241.5)" fill="none" stroke="#ffffff" stroke-width="30" stroke-linecap="butt" stroke-linejoin="miter" stroke-miterlimit="10" stroke-dasharray="none" stroke-opacity="" data-original="#000000" opacity="1" class="hovered-path"></path><path d="M0 0v-40.5" style="stroke-width:30;stroke-linecap:butt;stroke-linejoin:miter;stroke-miterlimit:10;stroke-dasharray:none;stroke-opacity:1" transform="translate(286 311)" fill="none" stroke="#ffffff" stroke-width="30" stroke-linecap="butt" stroke-linejoin="miter" stroke-miterlimit="10" stroke-dasharray="none" stroke-opacity="" data-original="#000000" opacity="1" class="hovered-path"></path><path d="M0 0v-40.5" style="stroke-width:30;stroke-linecap:butt;stroke-linejoin:miter;stroke-miterlimit:10;stroke-dasharray:none;stroke-opacity:1" transform="translate(286 241.5)" fill="none" stroke="#ffffff" stroke-width="30" stroke-linecap="butt" stroke-linejoin="miter" stroke-miterlimit="10" stroke-dasharray="none" stroke-opacity="" data-original="#000000" opacity="1" class="hovered-path"></path><path d="M0 0v-40.5" style="stroke-width:30;stroke-linecap:butt;stroke-linejoin:miter;stroke-miterlimit:10;stroke-dasharray:none;stroke-opacity:1" transform="translate(225 311)" fill="none" stroke="#ffffff" stroke-width="30" stroke-linecap="butt" stroke-linejoin="miter" stroke-miterlimit="10" stroke-dasharray="none" stroke-opacity="" data-original="#000000" opacity="1" class="hovered-path"></path><path d="M0 0v-40.5" style="stroke-width:30;stroke-linecap:butt;stroke-linejoin:miter;stroke-miterlimit:10;stroke-dasharray:none;stroke-opacity:1" transform="translate(225 241.5)" fill="none" stroke="#ffffff" stroke-width="30" stroke-linecap="butt" stroke-linejoin="miter" stroke-miterlimit="10" stroke-dasharray="none" stroke-opacity="" data-original="#000000" opacity="1" class="hovered-path"></path><path d="M0 0v-40.5" style="stroke-width:30;stroke-linecap:butt;stroke-linejoin:miter;stroke-miterlimit:10;stroke-dasharray:none;stroke-opacity:1" transform="translate(408.64 311)" fill="none" stroke="#ffffff" stroke-width="30" stroke-linecap="butt" stroke-linejoin="miter" stroke-miterlimit="10" stroke-dasharray="none" stroke-opacity="" data-original="#000000" opacity="1" class="hovered-path"></path><path d="M0 0v-40.5" style="stroke-width:30;stroke-linecap:butt;stroke-linejoin:miter;stroke-miterlimit:10;stroke-dasharray:none;stroke-opacity:1" transform="translate(408.64 241.5)" fill="none" stroke="#ffffff" stroke-width="30" stroke-linecap="butt" stroke-linejoin="miter" stroke-miterlimit="10" stroke-dasharray="none" stroke-opacity="" data-original="#000000" opacity="1" class="hovered-path"></path><path d="M0 0v-40.5" style="stroke-width:30;stroke-linecap:butt;stroke-linejoin:miter;stroke-miterlimit:10;stroke-dasharray:none;stroke-opacity:1" transform="translate(348.64 311)" fill="none" stroke="#ffffff" stroke-width="30" stroke-linecap="butt" stroke-linejoin="miter" stroke-miterlimit="10" stroke-dasharray="none" stroke-opacity="" data-original="#000000" opacity="1" class="hovered-path"></path><path d="M0 0v-40.5" style="stroke-width:30;stroke-linecap:butt;stroke-linejoin:miter;stroke-miterlimit:10;stroke-dasharray:none;stroke-opacity:1" transform="translate(348.64 241.5)" fill="none" stroke="#ffffff" stroke-width="30" stroke-linecap="butt" stroke-linejoin="miter" stroke-miterlimit="10" stroke-dasharray="none" stroke-opacity="" data-original="#000000" opacity="1" class="hovered-path"></path></g></g></svg>