<svg xmlns="http://www.w3.org/2000/svg" version="1.1" xmlns:xlink="http://www.w3.org/1999/xlink" width="512" height="512" x="0" y="0" viewBox="0 0 512.062 512.062" style="enable-background:new 0 0 512 512" xml:space="preserve" class=""><g><path d="M256.031 497.062c-123.228 0-223.124-99.896-223.124-223.124V15h446.248v258.938c0 123.228-99.896 223.124-223.124 223.124z" style="stroke-width:30;stroke-miterlimit:10;" fill="none" stroke="#ffffff" stroke-width="30" stroke-miterlimit="10" data-original="#000000" opacity="1"></path><path d="M92.911 15v258.938c0 90.089 73.031 163.12 163.12 163.12s163.12-73.031 163.12-163.12V15M419.151 273.938h60.004M371.374 389.281l42.429 42.429M256.031 437.058v60.004M140.688 389.281 98.259 431.71M92.911 273.938H32.907M419.151 144.255h60.004M32.907 144.255h60.004" style="stroke-width:30;stroke-miterlimit:10;" fill="none" stroke="#ffffff" stroke-width="30" stroke-miterlimit="10" data-original="#000000" opacity="1"></path><path d="M166.025 111.253h180.011v66.004H166.025zM256.031 304.365v45.309M226.029 111.253v66.004M286.033 111.253v66.004M193.568 278.492l-32.039 32.038M318.494 278.492l32.038 32.038" style="stroke-width:30;stroke-miterlimit:10;" fill="none" stroke="#ffffff" stroke-width="30" stroke-miterlimit="10" data-original="#000000" opacity="1"></path></g></svg>