<svg width="40" height="40" viewBox="0 0 40 40" fill="none" xmlns="http://www.w3.org/2000/svg">
<mask id="mask0_36_441" style="mask-type:luminance" maskUnits="userSpaceOnUse" x="0" y="0" width="40" height="40">
<path d="M39.9026 20.0487C39.9026 25.3401 37.8006 30.4148 34.059 34.1564C30.3174 37.898 25.2427 40 19.9513 40C14.6599 40 9.58519 37.898 5.8436 34.1564C2.10201 30.4148 0 25.3401 0 20.0487C0 14.7573 2.10201 9.6826 5.8436 5.94101C9.58519 2.19942 14.6599 0.0974121 19.9513 0.0974121C25.2427 0.0974121 30.3174 2.19942 34.059 5.94101C37.8006 9.6826 39.9026 14.7573 39.9026 20.0487Z" fill="white"/>
</mask>
<g mask="url(#mask0_36_441)">
<path d="M-9.92712 30.7863H49.9077V27.7163H-9.92712V30.7863Z" fill="white"/>
<path d="M-9.92712 27.7161H49.9077V24.6472H-9.92712V27.7161Z" fill="#CA4638"/>
<path d="M-9.92712 36.9216H49.9077V33.8528H-9.92712V36.9216Z" fill="white"/>
<path d="M-9.92712 39.9919H49.9077V36.9219H-9.92712V39.9919Z" fill="#CA4638"/>
<path d="M-9.92712 33.8529H49.9077V30.7864H-9.92712V33.8529Z" fill="#CA4638"/>
<path d="M-9.92712 24.5026H49.9077V21.436H-9.92712V24.5026Z" fill="white"/>
<path d="M-9.92712 15.442H49.9077V12.3755H-9.92712V15.442Z" fill="#CA4638"/>
<path d="M-9.92712 6.23677H49.9077V3.16675H-9.92712V6.23677Z" fill="white"/>
<path d="M-9.92712 9.30521H49.9077V6.23633H-9.92712V9.30521Z" fill="#CA4638"/>
<path d="M-9.92712 21.5809H49.9077V18.5085H-9.92712V21.5809Z" fill="#CA4638"/>
<path d="M-9.927 3.16656H49.9078V0.103516H-9.927V3.16656Z" fill="#CA4638"/>
<path d="M-9.92712 12.3755H49.9077V9.30542H-9.92712V12.3755Z" fill="white"/>
<path d="M-9.92712 18.5084H49.9077V15.4419H-9.92712V18.5084Z" fill="white"/>
</g>
<mask id="mask1_36_441" style="mask-type:luminance" maskUnits="userSpaceOnUse" x="0" y="0" width="40" height="40">
<path d="M39.9117 19.9489C39.9117 25.2397 37.8099 30.3138 34.0688 34.055C30.3276 37.7961 25.2535 39.8979 19.9627 39.8979C14.6719 39.8979 9.59786 37.7961 5.85671 34.055C2.11555 30.3138 0.0137939 25.2397 0.0137939 19.9489C0.0137939 14.6582 2.11555 9.58406 5.85671 5.84291C9.59786 2.10176 14.6719 0 19.9627 0C25.2535 0 30.3276 2.10176 34.0688 5.84291C37.8099 9.58406 39.9117 14.6582 39.9117 19.9489Z" fill="white"/>
</mask>
<g mask="url(#mask1_36_441)">
<path d="M0.0317383 21.5942H19.9779V0.00244141H0.0317383V21.5942Z" fill="#356BA0"/>
</g>
<path d="M15.2928 2.89062L15.442 3.35411H15.9287L15.5347 3.64037L15.6872 4.10385L15.2929 3.8173L14.8957 4.10385L15.0481 3.64037L14.6542 3.35411H15.1408L15.2928 2.89062Z" fill="white"/>
<path d="M15.2928 6.96118L15.442 7.42438H15.9287L15.5347 7.71093L15.6872 8.17412L15.2929 7.89087L14.8957 8.17412L15.0481 7.71093L14.6542 7.42438H15.1408L15.2928 6.96118Z" fill="white"/>
<path d="M15.2928 11.0337L15.442 11.498H15.9287L15.5347 11.7834L15.6872 12.2477L15.2929 11.9612L14.8957 12.2477L15.0481 11.7834L14.6542 11.498H15.1408L15.2928 11.0337Z" fill="white"/>
<path d="M15.2928 15.1965L15.442 15.663H15.9287L15.5347 15.9496L15.6872 16.416L15.2929 16.1262L14.8957 16.416L15.0481 15.9496L14.6542 15.663H15.1408L15.2928 15.1965Z" fill="white"/>
<path d="M15.2928 19.1743L15.442 19.6386H15.9287L15.5347 19.9273L15.6872 20.3906L15.2929 20.1018L14.8957 20.3906L15.0481 19.9273L14.6542 19.6386H15.1408L15.2928 19.1743Z" fill="white"/>
<path d="M11.6411 2.89062L11.7914 3.35411H12.2802L11.8849 3.64037L12.0352 4.10385L11.6412 3.8173L11.2462 4.10385L11.396 3.64037L11.0021 3.35411H11.4909L11.6411 2.89062Z" fill="white"/>
<path d="M11.6411 6.96118L11.7914 7.42438H12.2802L11.8849 7.71093L12.0352 8.17412L11.6412 7.89087L11.2462 8.17412L11.396 7.71093L11.0021 7.42438H11.4909L11.6411 6.96118Z" fill="white"/>
<path d="M11.6411 11.0337L11.7914 11.498H12.2802L11.8849 11.7834L12.0352 12.2477L11.6412 11.9612L11.2462 12.2477L11.396 11.7834L11.0021 11.498H11.4909L11.6411 11.0337Z" fill="white"/>
<path d="M11.6411 15.1965L11.7914 15.663H12.2802L11.8849 15.9496L12.0352 16.416L11.6412 16.1262L11.2462 16.416L11.396 15.9496L11.0021 15.663H11.4909L11.6411 15.1965Z" fill="white"/>
<path d="M11.6411 19.1743L11.7914 19.6386H12.2802L11.8849 19.9273L12.0352 20.3906L11.6412 20.1018L11.2462 20.3906L11.396 19.9273L11.0021 19.6386H11.4909L11.6411 19.1743Z" fill="white"/>
<path d="M7.99246 6.96118L8.14163 7.42438H8.62827L8.23433 7.71093L8.38635 8.17412L7.99239 7.89087L7.59516 8.17412L7.74763 7.71093L7.35339 7.42438H7.83923L7.99234 6.96118" fill="white"/>
<path d="M7.99246 11.0337L8.14163 11.498H8.62827L8.23433 11.7834L8.38635 12.2477L7.99239 11.9612L7.59516 12.2477L7.74763 11.7834L7.35339 11.498H7.83923L7.99234 11.0337" fill="white"/>
<path d="M7.99246 15.1965L8.14163 15.663H8.62827L8.23433 15.9496L8.38635 16.416L7.99239 16.1262L7.59516 16.416L7.74763 15.9496L7.35339 15.663H7.83923L7.99234 15.1965" fill="white"/>
<path d="M7.99246 19.1743L8.14163 19.6386H8.62827L8.23433 19.9273L8.38635 20.3906L7.99239 20.1018L7.59516 20.3906L7.74763 19.9273L7.35339 19.6386H7.83923L7.99234 19.1743" fill="white"/>
<path d="M4.33966 11.0337L4.48972 11.498H4.97857L4.58459 11.7834L4.73487 12.2477L4.33982 11.9612L3.94558 12.2477L4.09585 11.7834L3.70081 11.498H4.18746L4.33992 11.0337" fill="white"/>
<path d="M4.33966 15.1965L4.48972 15.663H4.97857L4.58459 15.9496L4.73487 16.416L4.33982 16.1262L3.94558 16.416L4.09585 15.9496L3.70081 15.663H4.18746L4.33992 15.1965" fill="white"/>
<path d="M4.33966 19.1743L4.48972 19.6386H4.97857L4.58459 19.9273L4.73487 20.3906L4.33982 20.1018L3.94558 20.3906L4.09585 19.9273L3.70081 19.6386H4.18746L4.33992 19.1743" fill="white"/>
<path d="M17.1535 4.92358L17.3036 5.39007H17.7924L17.3973 5.67333L17.5476 6.13982L17.1537 5.85355L16.7583 6.13982L16.9097 5.67333L16.5146 5.39007H17.0024L17.1538 4.92358" fill="white"/>
<path d="M17.1535 9.12817L17.3036 9.59165H17.7924L17.3973 9.87792L17.5476 10.3414L17.1537 10.0549L16.7583 10.3414L16.9097 9.87792L16.5146 9.59165H17.0024L17.1538 9.12817" fill="white"/>
<path d="M17.1161 13.2478L17.2675 13.711H17.7552L17.361 13.9975L17.5113 14.4608L17.1162 14.172L16.7223 14.4608L16.8723 13.9975L16.4773 13.711H16.9661L17.1164 13.2478" fill="white"/>
<path d="M17.0798 17.3179L17.2312 17.7814H17.72L17.3239 18.0676L17.4759 18.5311L17.0798 18.2456L16.6869 18.5311L16.8372 18.0676L16.4408 17.7814H16.9296L17.0798 17.3179Z" fill="white"/>
<path d="M13.5015 4.92358L13.6529 5.39007H14.1417L13.7456 5.67333L13.8976 6.13982L13.5015 5.85355L13.1064 6.13982L13.2589 5.67333L12.8646 5.39007H13.3513L13.5015 4.92358Z" fill="white"/>
<path d="M13.5015 9.12817L13.6529 9.59165H14.1417L13.7456 9.87792L13.8976 10.3414L13.5015 10.0549L13.1064 10.3414L13.2589 9.87792L12.8646 9.59165H13.3513L13.5015 9.12817Z" fill="white"/>
<path d="M13.4664 13.2478L13.6166 13.711H14.1055L13.7115 13.9975L13.8616 14.4608L13.4665 14.172L13.0726 14.4608L13.2228 13.9975L12.8275 13.711H13.3144L13.4665 13.2478" fill="white"/>
<path d="M13.4302 17.3179L13.5804 17.7814H14.0682L13.6742 18.0676L13.8245 18.5311L13.4303 18.2456L13.0352 18.5311L13.1855 18.0676L12.7915 17.7814H13.2793L13.4304 17.3179" fill="white"/>
<path d="M9.85099 4.78003L10.0021 5.24323H10.4899L10.0959 5.52978L10.2473 5.99297L9.85115 5.70671L9.45692 5.99297L9.60829 5.52978L9.21326 5.24323H9.70098L9.85126 4.78003" fill="white"/>
<path d="M9.85099 8.9812L10.0021 9.4444H10.4899L10.0959 9.73313L10.2473 10.1941L9.85115 9.91089L9.45692 10.1941L9.60829 9.73313L9.21326 9.4444H9.70098L9.85126 8.9812" fill="white"/>
<path d="M9.81572 13.1008L9.96447 13.564H10.4533L10.0583 13.8506L10.2096 14.3138L9.81566 14.0272L9.41924 14.3138L9.57061 13.8506L9.17664 13.564H9.66439L9.81572 13.1008Z" fill="white"/>
<path d="M9.77846 17.1731L9.92983 17.6374H10.4176L10.0234 17.9207L10.1736 18.3871L9.77859 18.1006L9.38462 18.3871L9.53468 17.9207L9.13965 17.6374H9.62738L9.77875 17.1731" fill="white"/>
<path d="M6.20234 8.93994L6.35218 9.40314H6.8402L6.44488 9.69296L6.59515 10.1562L6.20227 9.86745L5.80614 10.1562L5.95817 9.69296L5.56311 9.40314H6.05086L6.20223 8.93994" fill="white"/>
<path d="M6.166 13.0591L6.31518 13.5234H6.80402L6.40897 13.8121L6.56011 14.2753L6.16616 13.9869L5.77111 14.2753L5.92117 13.8121L5.52722 13.5234H6.01386L6.16632 13.0591" fill="white"/>
<path d="M6.12867 17.1296L6.28004 17.5939H6.76777L6.37274 17.8827L6.52258 18.3459L6.12861 18.0571L5.73466 18.3459L5.88494 17.8827L5.48962 17.5939H5.97738L6.12867 17.1296Z" fill="white"/>
<path d="M2.513 12.9888L2.66435 13.4523H3.15208L2.75705 13.7385L2.90842 14.202L2.5131 13.9155L2.11915 14.202L2.26942 13.7385L1.87439 13.4523H2.36322L2.51327 12.9888" fill="white"/>
<path d="M2.47808 17.0593L2.62706 17.5225H3.1159L2.72085 17.8091L2.87222 18.2723L2.47824 17.986L2.08183 18.2723L2.23319 17.8091L1.83923 17.5225H2.32699L2.47836 17.0593" fill="white"/>
<path d="M18.9425 2.89062L19.0917 3.35411H19.5805L19.1866 3.64037L19.3364 4.10385L18.9425 3.8173L18.5474 4.10385L18.6977 3.64037L18.3035 3.35411H18.7912L18.9425 2.89062Z" fill="white"/>
<path d="M18.9425 6.96118L19.0917 7.42438H19.5805L19.1866 7.71093L19.3364 8.17412L18.9425 7.89087L18.5474 8.17412L18.6977 7.71093L18.3035 7.42438H18.7912L18.9425 6.96118Z" fill="white"/>
<path d="M18.9425 11.0337L19.0917 11.498H19.5805L19.1866 11.7834L19.3364 12.2477L18.9425 11.9612L18.5474 12.2477L18.6977 11.7834L18.3035 11.498H18.7912L18.9425 11.0337Z" fill="white"/>
<path d="M18.9425 15.1965L19.0917 15.663H19.5805L19.1866 15.9496L19.3364 16.416L18.9425 16.1262L18.5474 16.416L18.6977 15.9496L18.3035 15.663H18.7912L18.9425 15.1965Z" fill="white"/>
<path d="M18.9425 19.1743L19.0917 19.6386H19.5805L19.1866 19.9273L19.3364 20.3906L18.9425 20.1018L18.5474 20.3906L18.6977 19.9273L18.3035 19.6386H18.7912L18.9425 19.1743Z" fill="white"/>
<path d="M17.1535 1.04053L17.3036 1.50483H17.7924L17.3984 1.79355L17.5487 2.25676L17.1537 1.96803L16.7594 2.25676L16.9097 1.79355L16.5146 1.50483H17.0013L17.1538 1.04053" fill="white"/>
<path d="M0.981506 19.1743L1.13157 19.6386H1.62041L1.22644 19.9273L1.37673 20.3906L0.981663 20.1018L0.587428 20.3906L0.737703 19.9273L0.342651 19.6386H0.829314L0.98177 19.1743" fill="white"/>
<path d="M1.31732 15.1965L1.46738 15.663H1.95622L1.56225 15.9496L1.71254 16.416L1.31747 16.1262L0.923239 16.416L1.07351 15.9496L0.678467 15.663H1.16512L1.31758 15.1965" fill="white"/>
<path d="M13.5015 1.39771L13.6529 1.8642H14.1417L13.7456 2.14745L13.8976 2.61394L13.5015 2.32767L13.1064 2.61394L13.2589 2.14745L12.8646 1.8642H13.3513L13.5015 1.39771Z" fill="white"/>
</svg>
