<svg width="199" height="50" viewBox="0 0 199 50" fill="none" xmlns="http://www.w3.org/2000/svg">
<path d="M122.095 7.27043C121.989 7.76156 121.674 8.2176 121.147 8.5684L120.341 9.12969L114.868 5.27084C113.535 4.32366 111.43 4.32366 110.097 5.27084L104.66 9.16476L103.748 8.53331C102.625 7.72647 102.625 6.07769 103.748 5.27084L110.097 0.710378C111.43 -0.236793 113.535 -0.236793 114.868 0.710378L121.112 5.1656C121.954 5.76197 122.27 6.53374 122.095 7.27043Z" fill="white"/>
<path d="M94.276 8.49825L93.364 9.12969L87.9265 5.27084C86.5935 4.32366 84.4886 4.32366 83.1556 5.27084L77.683 9.16476L76.8762 8.60348C76.35 8.2176 76.0342 7.76156 75.929 7.27043C75.7536 6.53374 76.0693 5.76197 76.8762 5.20067L83.1556 0.710378C84.4886 -0.236793 86.5935 -0.236793 87.9265 0.710378L94.276 5.23576C95.3986 6.04261 95.3986 7.72647 94.276 8.49825Z" fill="white"/>
<path d="M125.954 6.88466V11.4451C125.954 12.3221 125.498 13.1991 124.551 13.8657L115.64 20.2152C113.781 21.5483 110.729 21.5483 108.87 20.2152L100.415 14.1814C99.5734 13.585 98.4506 13.585 97.6087 14.1814L89.1544 20.2152C87.2952 21.5483 84.2431 21.5483 82.3839 20.2152L73.4734 13.8657C72.5262 13.1991 72.0702 12.3221 72.0702 11.4451V6.88466C72.0702 7.6915 72.4912 8.53344 73.298 9.16489C73.3682 9.23505 73.4033 9.27013 73.4734 9.30521L75.9291 11.0592L82.3839 15.6548C84.2431 16.9878 87.2952 16.9878 89.1544 15.6548L95.8196 10.9189L97.0474 10.0419C98.2052 9.19998 99.7838 9.19998 100.941 10.0419L102.204 10.9189L108.835 15.6548C110.694 16.9878 113.746 16.9878 115.605 15.6548L122.06 11.0592L124.516 9.30521C124.586 9.27013 124.621 9.23505 124.691 9.16489C125.533 8.53344 125.954 7.6915 125.954 6.88466Z" fill="white"/>
<path d="M1.68385 50C1.36818 50 1.08754 49.9299 0.806897 49.7545C0.31581 49.4387 0 48.9126 0 48.3161V36.0731C1.85927 36.0731 3.3677 37.5815 3.3677 39.4408V45.4746L10.2085 41.8614C10.6995 41.6158 11.296 41.6158 11.7871 41.8614L18.6277 45.4746V39.4408C18.6277 37.5815 20.1363 36.0731 21.9955 36.0731V48.3161C21.9955 48.9126 21.6797 49.4739 21.1886 49.7545C20.6976 50.0702 20.0661 50.0702 19.5398 49.7895L11.0154 45.2992L2.49075 49.7895C2.24513 49.9299 1.96449 50 1.68385 50Z" fill="white"/>
<path d="M129.589 49.7554C129.309 49.7554 129.028 49.6853 128.783 49.5449L112.681 40.7047V46.5631C112.681 48.4224 111.172 49.9308 109.313 49.9308V37.8281C109.313 37.2317 109.629 36.6704 110.155 36.3898C110.681 36.074 111.312 36.074 111.838 36.3547L127.94 45.195V39.3014C127.94 37.4422 129.449 35.9337 131.309 35.9337V48.0715C131.309 48.668 130.993 49.2292 130.467 49.5099C130.186 49.6853 129.905 49.7554 129.589 49.7554Z" fill="white"/>
<path d="M62.128 49.7554C61.8473 49.7554 61.5667 49.6853 61.3211 49.5449L45.2192 40.7047V46.5631C45.2192 48.4224 43.7107 49.9308 41.8515 49.9308V37.8281C41.8515 37.2317 42.1671 36.6704 42.6934 36.3898C43.2195 36.074 43.851 36.074 44.3772 36.3547L60.4441 45.195V39.3014C60.4441 37.4422 61.9526 35.9337 63.8118 35.9337V48.0715C63.8118 48.668 63.496 49.2292 62.9699 49.5099C62.7243 49.6853 62.4086 49.7554 62.128 49.7554Z" fill="white"/>
<path d="M30.558 49.9308V39.3014C30.558 37.4422 32.0665 35.9337 33.9257 35.9337V46.5631C33.9609 48.4224 32.4173 49.9308 30.558 49.9308Z" fill="white"/>
<path d="M97.8047 49.9308V39.3014C97.8047 37.4422 99.3124 35.9337 101.172 35.9337V46.5631C101.206 48.4224 99.6987 49.9308 97.8047 49.9308Z" fill="white"/>
<path d="M139.585 49.9308V39.3014C139.585 37.4422 141.094 35.9337 142.952 35.9337V46.5631C142.988 48.4224 141.479 49.9308 139.585 49.9308Z" fill="white"/>
<path d="M79.3879 45.198H73.6338V41.8303H82.7896C82.7896 43.6545 81.2819 45.198 79.3879 45.198Z" fill="white"/>
<path d="M71.9502 49.9311V37.2671C71.9502 36.3199 72.7228 35.5832 73.6338 35.5832H91.0344C91.0344 37.4425 89.5253 38.951 87.6673 38.951H75.3534V46.5634C75.3188 48.4227 73.8097 49.9311 71.9502 49.9311Z" fill="white"/>
<path d="M159.129 49.8968V37.6187H162.496V46.5291C162.531 48.3883 161.023 49.8968 159.129 49.8968Z" fill="white"/>
<path d="M168.14 39.3014H153.512C151.653 39.3014 150.144 37.793 150.144 35.9337H171.543C171.543 37.793 169.999 39.3014 168.14 39.3014Z" fill="white"/>
<path d="M191.541 37.7579L188.067 41.0555L184.595 37.7579C183.366 36.5652 181.717 35.9337 179.999 35.9337H177.473L186.383 44.0373V49.8958C188.243 49.8958 189.75 48.3873 189.75 46.528V44.0724L198.627 35.9337H196.136C194.416 35.9337 192.767 36.5652 191.541 37.7579Z" fill="white"/>
</svg>
