<svg width="32" height="32" viewBox="0 0 32 32" fill="none" xmlns="http://www.w3.org/2000/svg">
<path fill-rule="evenodd" clip-rule="evenodd" d="M25.806 6.06909C23.1865 3.44648 19.7027 2.00154 15.9913 2C8.34358 2 2.11946 8.22395 2.11638 15.8737C2.11536 18.3191 2.75417 20.7062 3.96841 22.8103L2 30L9.3553 28.0706C11.382 29.1761 13.6636 29.7587 15.9856 29.7594H15.9915C23.6383 29.7594 29.8631 23.5349 29.866 15.8848C29.8676 12.1773 28.4257 8.69153 25.806 6.06909ZM15.9913 27.4162H15.9865C13.9173 27.4153 11.8878 26.8592 10.117 25.8087L9.69607 25.5587L5.33132 26.7037L6.49634 22.4482L6.22205 22.0119C5.06763 20.1757 4.45803 18.0535 4.45906 15.8746C4.46145 9.51628 9.63489 4.34336 15.9959 4.34336C19.0762 4.34438 21.9717 5.54546 24.149 7.72527C26.3262 9.90508 27.5245 12.8025 27.5235 15.884C27.5208 22.2427 22.3477 27.4162 15.9913 27.4162ZM22.3169 18.7791C21.9703 18.6055 20.2658 17.7671 19.9479 17.6512C19.6304 17.5355 19.399 17.4779 19.1681 17.8249C18.9369 18.1718 18.2726 18.9528 18.0703 19.184C17.8679 19.4154 17.6659 19.4445 17.3192 19.2708C16.9724 19.0974 15.8554 18.7311 14.5311 17.55C13.5006 16.6308 12.8049 15.4955 12.6025 15.1486C12.4005 14.8013 12.6008 14.6318 12.7546 14.4411C13.1299 13.975 13.5057 13.4864 13.6213 13.2552C13.737 13.0238 13.679 12.8213 13.5922 12.6478C13.5057 12.4744 12.8124 10.7679 12.5236 10.0736C12.2419 9.39785 11.9564 9.48911 11.7434 9.47852C11.5414 9.46843 11.3102 9.46638 11.079 9.46638C10.8479 9.46638 10.4723 9.55303 10.1544 9.90029C9.83672 10.2474 8.94121 11.086 8.94121 12.7924C8.94121 14.4988 10.1835 16.1473 10.3568 16.3787C10.5301 16.6101 12.8015 20.1118 16.2791 21.6133C17.1062 21.9708 17.7519 22.184 18.2555 22.3437C19.0861 22.6076 19.8416 22.5704 20.4391 22.4812C21.1053 22.3815 22.49 21.6424 22.7792 20.8327C23.068 20.0228 23.068 19.3288 22.9812 19.184C22.8947 19.0394 22.6635 18.9528 22.3169 18.7791Z" fill="white"/>
</svg>
